<?xml version="1.0" encoding="utf-8"?>
<!-- Generator: Adobe Illustrator 15.0.0, SVG Export Plug-In . SVG Version: 6.00 Build 0)  -->
<!DOCTYPE svg PUBLIC "-//W3C//DTD SVG 1.1//EN" "http://www.w3.org/Graphics/SVG/1.1/DTD/svg11.dtd">
<svg version="1.1" id="Layer_1" xmlns="http://www.w3.org/2000/svg" xmlns:xlink="http://www.w3.org/1999/xlink" x="0px" y="0px"
	 width="391px" height="303px" viewBox="0 0 391 303" enable-background="new 0 0 391 303" xml:space="preserve">
<g>
	<circle fill-rule="evenodd" clip-rule="evenodd" fill="#F7FFBF" cx="191.409" cy="148.635" r="67"/>
	<g>
		<path fill-rule="evenodd" clip-rule="evenodd" fill="#45ADA8" d="M183.425,36.249c56.019-4.14,93.19,27.262,111.74,62.802
			c6.847,13.121,11.774,28.149,12.93,44.785c2.65,38.229-12,66.833-30.014,86.344c-18.914,20.49-43.056,35.275-78.039,37.861
			c-35.438,2.619-66.228-10.822-86.344-29.092c-20.584-18.691-35.187-43.621-37.859-78.029
			c-3.033-38.916,11.631-66.91,29.091-86.345c8.946-9.961,19.368-18.312,32.782-25.395C150.713,42.31,165.837,37.548,183.425,36.249
			z M161.258,117.974c-10.162,9.069-17.121,22.021-15.238,40.169c2.453,23.62,24.263,42.245,51.256,39.712
			c18.448-1.729,33.931-15.525,38.784-33.709c3.706-13.872,0.321-28.191-6.007-37.858c-6.725-10.301-22.465-21.845-44.32-19.392
			C173.663,108.25,167.153,112.714,161.258,117.974z"/>
	</g>
</g>
<circle fill-rule="evenodd" clip-rule="evenodd" fill="#F7FFBF" cx="-414.959" cy="-176.73" r="67"/>
<g>
	<path fill-rule="evenodd" clip-rule="evenodd" fill="#45ADA8" d="M-422.942-289.117c56.019-4.14,93.189,27.262,111.739,62.802
		c6.847,13.121,11.774,28.149,12.93,44.785c2.65,38.229-12,66.832-30.014,86.344c-18.914,20.49-43.056,35.275-78.039,37.861
		c-35.438,2.62-66.228-10.821-86.344-29.092c-20.584-18.691-35.187-43.621-37.859-78.028c-3.033-38.916,11.631-66.91,29.091-86.346
		c8.946-9.961,19.368-18.312,32.782-25.395C-455.654-283.055-440.53-287.817-422.942-289.117z M-445.109-207.391
		c-10.162,9.069-17.121,22.021-15.238,40.169c2.453,23.621,24.263,42.246,51.256,39.713c18.447-1.729,33.931-15.525,38.783-33.709
		c3.706-13.872,0.321-28.191-6.007-37.858c-6.725-10.301-22.465-21.845-44.319-19.392
		C-432.705-217.115-439.215-212.651-445.109-207.391z"/>
	<path fill-rule="evenodd" clip-rule="evenodd" fill="#45ADA8" d="M-417.404-183.11c16.805-4.086,16.549,23.276,0,19.856
		C-424.447-164.708-429.215-180.247-417.404-183.11z"/>
</g>
<path opacity="0.2" fill-rule="evenodd" clip-rule="evenodd" fill="#FFFFFF" d="M-358.248-257.596
	c-7.779,12.189-16.278,23.662-24.12,35.784c6.436,4.033,11.661,9.266,15.701,15.701c12.481-7.951,24.719-16.152,36.494-24.814
	C-337.802-241.004-347.157-250.185-358.248-257.596z"/>
<path opacity="0.2" fill-rule="evenodd" clip-rule="evenodd" fill="#FFFFFF" d="M-471.543-92.36
	c7.779-12.189,16.278-23.662,24.12-35.784c-6.436-4.033-11.661-9.266-15.701-15.701c-12.481,7.951-24.719,16.152-36.494,24.814
	C-491.989-108.952-482.634-99.771-471.543-92.36z"/>
<path fill-rule="evenodd" clip-rule="evenodd" fill="#1F383D" d="M356.382,126.847c0,1.916,0,3.846,0,5.775
	c-1.266,7.646-9.034,7.739-11.567,14.131c-3.212,8.155-1.405,18.301-2.562,26.979c-1.513,11.412-5.515,21.096-12.201,28.276
	c-24.337,26.067-99.729,26.267-118.217-5.145c-3.857-6.562-6.73-18.592-7.703-30.188c-0.929-11.012-2.101-25.234-11.568-25.698
	c-9.057-0.448-11.813,10.905-12.847,24.415c-1.667,21.946-9.15,38.67-23.126,46.886c-32.183,18.933-93.021,7.182-107.923-16.694
	c-1.953-3.12-4.185-8.045-5.143-10.919c-3.907-11.736,0.395-23.673-4.494-37.262c-2.524-7.026-9.907-7.013-11.567-14.78
	c0-1.93,0-3.859,0-5.775c4.294-14.455,28.015-14.499,44.971-16.061c30.214-2.778,56.104-1.666,81.585,3.213
	c11.783,2.238,25.365,5.882,38.544,5.774c24.556-0.2,44.243-9.419,71.315-10.917c17.575-0.973,35.413,0.679,52.027,2.562
	C332.553,113.305,355.069,114.138,356.382,126.847z M58.302,136.484c-5.182,10.146-2.147,35.95,1.282,44.32
	c2.91,7.104,9.906,14.084,16.061,17.345c17.265,9.126,52.297,11.967,70.667,0c6.038-3.924,12.208-11.737,14.778-19.273
	c3.352-9.836,5.83-29.65-0.648-41.108c-8.347-14.794-42.561-14.502-68.096-12.85C75.243,126.013,63.144,126.97,58.302,136.484z
	 M224.05,137.117c-12.275,22.545,0.525,52.598,13.481,61.032c26.116,17.001,76.275,5.327,86.095-16.062
	c3.523-7.707,7.814-34.05,1.916-45.603c-7.289-14.3-38.111-12.602-59.734-11.566C246.63,125.828,229.888,126.384,224.05,137.117z"/>
<g>
	<g>
		<path fill-rule="evenodd" clip-rule="evenodd" fill="#1F383D" d="M-452.165,372.546c-30.653,0-60.122-11.568-70.07-27.507
			c-2.128-3.4-4.44-8.548-5.444-11.559c-1.997-5.998-2.014-12.021-2.03-17.845c-0.018-6.226-0.036-12.664-2.441-19.352
			c-0.89-2.477-2.649-3.84-4.686-5.417c-2.621-2.03-5.882-4.558-6.992-9.752l-0.066-0.31v-6.529l0.124-0.418
			c4.392-14.784,25.021-16.4,41.596-17.699c2.054-0.16,4.059-0.317,5.977-0.494c11.023-1.014,21.272-1.507,31.333-1.507
			c17.65,0,34.362,1.558,51.09,4.761c2.605,0.495,5.242,1.046,8.033,1.63c9.625,2.012,19.577,4.093,29.375,4.093l0.547-0.002
			c12.43-0.102,23.583-2.572,35.391-5.188c11.071-2.453,22.52-4.99,35.784-5.724c3.508-0.194,7.195-0.293,10.962-0.293
			c14.291,0,28.425,1.379,41.569,2.87c1.744,0.197,3.554,0.383,5.396,0.572c17.016,1.749,36.302,3.731,37.727,17.527l0.016,0.154
			v6.177l-0.04,0.243c-0.896,5.41-4.4,7.95-7.216,9.99c-1.985,1.439-3.701,2.683-4.522,4.756c-1.812,4.599-1.845,10.035-1.88,15.791
			c-0.021,3.475-0.043,7.067-0.498,10.479c-1.64,12.367-6.006,22.436-12.979,29.924c-11.506,12.324-34.635,19.979-60.364,19.979
			c-22.981,0-51.504-6.737-62.633-25.646c-3.936-6.693-7.041-18.747-8.107-31.459c-0.81-9.601-1.907-22.619-8.727-22.953
			c-0.125-0.006-0.247-0.009-0.366-0.009c-5.243,0-8.212,6.881-9.343,21.656c-1.81,23.819-10.315,40.848-24.597,49.243
			C-421.16,369.151-435.655,372.545-452.165,372.546z M-282.052,275.122c-6.646,0-13.418,0.325-19.393,0.611l-2.214,0.105
			c-17.765,0.839-33.107,1.562-38.011,10.577c-11.565,21.241,1.185,49.73,12.482,57.084c7.697,5.011,18.102,7.659,30.088,7.659
			c23.178,0.001,45.862-9.864,51.644-22.458c3.275-7.164,7.262-32.624,1.971-42.987
			C-249.118,278.586-261.079,275.122-282.052,275.122z M-454.795,275.012c-6.185,0-13.06,0.25-21.021,0.766
			c-17.501,1.121-27.595,2.135-31.564,9.933c-4.605,9.019-1.863,33.896,1.384,41.822c2.765,6.749,9.482,13.072,14.689,15.831
			c8.863,4.686,22.716,7.597,36.149,7.597c12.913,0,24.092-2.648,31.476-7.459c5.697-3.702,11.278-10.991,13.576-17.729
			c3.251-9.541,5.366-28.429-0.42-38.663C-415.054,279.081-429.949,275.012-454.795,275.012z"/>
		<path fill="#FFFFFF" d="M-293.681,256.435c14.02,0,28.013,1.352,41.231,2.851c16.647,1.886,39.164,2.719,40.477,15.428
			c0,1.916,0,3.846,0,5.775c-1.266,7.646-9.034,7.739-11.567,14.131c-3.212,8.154-1.405,18.301-2.562,26.979
			c-1.513,11.412-5.515,21.096-12.201,28.276c-11.643,12.471-34.977,19.022-58.169,19.022c-25.286,0-50.404-7.783-60.048-24.167
			c-3.857-6.562-6.73-18.592-7.703-30.188c-0.929-11.012-2.101-25.234-11.569-25.698c-0.173-0.009-0.345-0.013-0.513-0.013
			c-8.649-0.001-11.32,11.175-12.334,24.427c-1.667,21.947-9.15,38.671-23.126,46.887c-11.083,6.52-25.565,9.401-40.398,9.401
			c-28.24,0-57.754-10.441-67.525-26.096c-1.953-3.12-4.185-8.045-5.143-10.919c-3.907-11.736,0.395-23.673-4.494-37.263
			c-2.524-7.026-9.907-7.013-11.567-14.78c0-1.93,0-3.859,0-5.775c4.294-14.455,28.015-14.499,44.971-16.061
			c10.849-0.998,21.144-1.494,31.059-1.494c17.698,0,34.194,1.58,50.526,4.707c11.613,2.206,24.973,5.776,37.973,5.776
			c0.19,0,0.381,0,0.572-0.002c24.557-0.2,44.244-9.419,71.316-10.917C-300.885,256.523-297.281,256.435-293.681,256.435
			 M-455.156,353.96c12.334,0,24.538-2.359,33.113-7.945c6.038-3.924,12.208-11.737,14.778-19.273
			c3.352-9.836,5.83-29.65-0.648-41.108c-6.162-10.921-26.424-13.621-46.882-13.621c-7.254,0-14.53,0.339-21.214,0.771
			c-17.104,1.096-29.202,2.053-34.044,11.566c-5.182,10.146-2.147,35.95,1.282,44.32c2.91,7.104,9.906,14.084,16.061,17.345
			C-483.504,350.881-469.246,353.96-455.156,353.96 M-299.098,354.159c23.333,0,47.821-9.942,54.369-24.206
			c3.523-7.707,7.814-34.051,1.916-45.604c-5.159-10.121-22.107-12.228-39.239-12.228c-7.073,0-14.176,0.358-20.495,0.661
			c-19.178,0.91-35.92,1.467-41.758,12.199c-12.275,22.546,0.525,52.599,13.481,61.032
			C-322.123,351.678-310.755,354.159-299.098,354.159 M-293.679,250.435h-0.002c-3.821,0-7.565,0.101-11.128,0.297
			c-13.509,0.748-25.078,3.312-36.268,5.79c-11.648,2.582-22.652,5.02-34.766,5.118l-0.523,0.002
			c-9.488,0-19.286-2.048-28.762-4.029c-2.805-0.587-5.455-1.141-8.091-1.642c-16.908-3.237-33.805-4.812-51.646-4.812
			c-10.154,0-20.493,0.497-31.608,1.52c-1.891,0.174-3.856,0.328-5.937,0.491c-17.49,1.37-39.258,3.075-44.237,19.835l-0.249,0.837
			v0.872v5.775v0.634l0.132,0.62c1.34,6.268,5.241,9.289,8.089,11.496c2.041,1.581,3.131,2.479,3.699,4.059
			c2.23,6.202,2.247,12.102,2.265,18.348c0.017,6.061,0.034,12.328,2.183,18.782c1.061,3.18,3.501,8.613,5.75,12.207
			c5.404,8.657,15.713,16.042,29.809,21.35c12.952,4.877,28.153,7.562,42.803,7.562c17.043,0,32.064-3.538,43.44-10.229
			c15.165-8.915,24.179-26.76,26.067-51.604c0.538-7.024,1.47-12.032,2.85-15.307c1.499-3.557,2.791-3.574,3.49-3.574
			c0.003,0,0.007,0,0.011,0c0.072,0,0.145,0.002,0.218,0.006c4.2,0.205,5.292,13.155,5.878,20.113l0.009,0.096
			c0.862,10.29,3.552,24.292,8.509,32.726c5.235,8.894,14.648,16.087,27.224,20.804c11.024,4.136,24.163,6.322,37.997,6.322
			c26.533,0,50.503-8.02,62.555-20.928c7.411-7.959,12.04-18.583,13.764-31.583c0.479-3.595,0.502-7.284,0.523-10.853
			c0.033-5.468,0.065-10.633,1.674-14.716c0.472-1.192,1.577-2.034,3.489-3.42c2.914-2.112,7.317-5.304,8.415-11.931l0.08-0.486
			v-0.493v-5.775v-0.309l-0.031-0.308c-0.786-7.604-6.248-13.052-16.235-16.19c-7.229-2.272-16.229-3.197-24.169-4.014
			c-1.832-0.188-3.631-0.373-5.365-0.569C-265.006,251.823-279.24,250.435-293.679,250.435L-293.679,250.435z M-455.156,347.96
			c-12.974,0-26.29-2.778-34.75-7.25c-5.421-2.872-11.147-9.027-13.312-14.314c-1.303-3.181-2.901-10.93-3.434-19.588
			c-0.548-8.899,0.178-16.274,1.943-19.729c3.227-6.34,13.154-7.287,29.084-8.308c7.899-0.511,14.712-0.759,20.831-0.759
			c31.056,0,39.429,6.622,41.656,10.569c5.337,9.44,3.271,27.196,0.194,36.225c-2.067,6.06-7.269,12.864-12.368,16.178
			C-432.22,345.483-442.817,347.96-455.156,347.96L-455.156,347.96z M-299.098,348.159c-11.405,0-21.243-2.48-28.452-7.173
			c-4.538-2.954-10.537-10.858-13.711-21.859c-1.915-6.637-4.173-19.524,2.226-31.275c4.098-7.533,19.36-8.253,35.519-9.016
			l1.254-0.06l0.963-0.046c5.941-0.285,12.675-0.608,19.248-0.608c19.462,0,30.865,3.012,33.894,8.952
			c4.827,9.454,0.988,33.788-2.027,40.384C-255.424,338.869-277.368,348.159-299.098,348.159L-299.098,348.159z"/>
	</g>
</g>
<path fill-rule="evenodd" clip-rule="evenodd" fill="#FFFFFF" d="M464.12,163.918c10.294,6.67,18.45,15.489,25.671,25.243
	c-11.272,8.408-23.059,16.302-35.078,23.958c-3.634-5.788-8.334-10.495-14.122-14.122
	C448.263,187.137,456.644,175.979,464.12,163.918z"/>
</svg>
