<?xml version="1.0" encoding="utf-8"?>
<!-- Generator: Adobe Illustrator 15.0.0, SVG Export Plug-In . SVG Version: 6.00 Build 0)  -->
<!DOCTYPE svg PUBLIC "-//W3C//DTD SVG 1.1//EN" "http://www.w3.org/Graphics/SVG/1.1/DTD/svg11.dtd">
<svg version="1.1" id="Layer_1" xmlns="http://www.w3.org/2000/svg" xmlns:xlink="http://www.w3.org/1999/xlink" x="0px" y="0px"
	 width="906px" height="303px" viewBox="0 0 906 303" enable-background="new 0 0 906 303" xml:space="preserve">
<g>
	<circle fill-rule="evenodd" clip-rule="evenodd" fill="#F7FFBF" cx="212.016" cy="146.562" r="77.97"/>
	<g>
		<path fill-rule="evenodd" clip-rule="evenodd" fill="#45ADA8" d="M202.725,15.775C267.916,10.958,311.172,47.5,332.76,88.86
			c7.967,15.27,13.701,32.757,15.047,52.118c3.084,44.486-13.965,77.774-34.928,100.48c-22.011,23.845-50.106,41.051-90.817,44.06
			c-41.24,3.049-77.071-12.594-100.481-33.854c-23.954-21.752-40.948-50.764-44.058-90.806
			c-3.53-45.286,13.535-77.863,33.854-100.481c10.411-11.591,22.54-21.311,38.15-29.552
			C164.656,22.83,182.257,17.289,202.725,15.775z M176.928,110.882c-11.826,10.553-19.924,25.627-17.733,46.746
			c2.854,27.486,28.235,49.161,59.647,46.213c21.468-2.011,39.487-18.067,45.134-39.228c4.313-16.141,0.374-32.806-6.991-44.055
			c-7.825-11.987-26.143-25.422-51.576-22.567C191.363,99.566,183.788,104.762,176.928,110.882z"/>
	</g>
</g>
<circle fill-rule="evenodd" clip-rule="evenodd" fill="#F7FFBF" cx="453.041" cy="-176.73" r="67"/>
<g>
	<path fill-rule="evenodd" clip-rule="evenodd" fill="#45ADA8" d="M445.058-289.117c56.019-4.14,93.189,27.262,111.739,62.802
		c6.847,13.121,11.774,28.149,12.93,44.785c2.65,38.229-12,66.832-30.014,86.344c-18.914,20.49-43.056,35.275-78.039,37.861
		c-35.438,2.62-66.228-10.821-86.344-29.092c-20.584-18.691-35.187-43.621-37.859-78.028c-3.033-38.916,11.631-66.91,29.091-86.346
		c8.946-9.961,19.368-18.312,32.782-25.395C412.346-283.055,427.47-287.817,445.058-289.117z M422.891-207.391
		c-10.162,9.069-17.121,22.021-15.238,40.169c2.453,23.621,24.263,42.246,51.256,39.713c18.447-1.729,33.931-15.525,38.783-33.709
		c3.706-13.872,0.321-28.191-6.007-37.858c-6.725-10.301-22.465-21.845-44.319-19.392
		C435.295-217.115,428.785-212.651,422.891-207.391z"/>
	<path fill-rule="evenodd" clip-rule="evenodd" fill="#45ADA8" d="M450.596-183.11c16.805-4.086,16.549,23.276,0,19.856
		C443.553-164.708,438.785-180.247,450.596-183.11z"/>
</g>
<path opacity="0.2" fill-rule="evenodd" clip-rule="evenodd" fill="#FFFFFF" d="M509.752-257.596
	c-7.779,12.189-16.278,23.662-24.12,35.784c6.436,4.033,11.661,9.266,15.701,15.701c12.481-7.951,24.719-16.152,36.494-24.814
	C530.198-241.004,520.843-250.185,509.752-257.596z"/>
<path opacity="0.2" fill-rule="evenodd" clip-rule="evenodd" fill="#FFFFFF" d="M396.457-92.36
	c7.779-12.189,16.278-23.662,24.12-35.784c-6.436-4.033-11.661-9.266-15.701-15.701c-12.481,7.951-24.719,16.152-36.494,24.814
	C376.011-108.952,385.366-99.771,396.457-92.36z"/>
<path fill-rule="evenodd" clip-rule="evenodd" fill="#1F383D" d="M402.145,111.281c0,2.23,0,4.476,0,6.721
	c-1.473,8.898-10.515,9.006-13.462,16.445c-3.736,9.489-1.634,21.297-2.982,31.395c-1.76,13.281-6.417,24.551-14.199,32.907
	c-28.321,30.335-116.057,30.567-137.572-5.986c-4.489-7.637-7.833-21.635-8.964-35.133c-1.081-12.814-2.445-29.364-13.463-29.904
	c-10.54-0.522-13.747,12.689-14.951,28.412c-1.94,25.54-10.648,45.001-26.913,54.563c-37.452,22.031-108.25,8.356-125.594-19.43
	c-2.273-3.63-4.87-9.361-5.985-12.705c-4.547-13.658,0.459-27.55-5.229-43.364c-2.938-8.177-11.529-8.161-13.461-17.2
	c0-2.246,0-4.491,0-6.721c4.997-16.822,32.602-16.873,52.334-18.69c35.161-3.233,65.29-1.939,94.943,3.739
	c13.712,2.604,29.518,6.845,44.855,6.72c28.577-0.233,51.487-10.961,82.993-12.704c20.452-1.132,41.21,0.79,60.545,2.982
	C374.413,95.522,400.618,96.491,402.145,111.281z M55.261,122.496c-6.03,11.808-2.499,41.835,1.492,51.577
	c3.387,8.267,11.528,16.39,18.69,20.184c20.092,10.621,60.86,13.926,82.238,0c7.026-4.566,14.206-13.657,17.197-22.429
	c3.9-11.446,6.785-34.504-0.754-47.838c-9.714-17.216-49.529-16.876-79.246-14.954C74.975,110.311,60.895,111.424,55.261,122.496z
	 M248.146,123.232c-14.285,26.237,0.611,61.209,15.688,71.024c30.393,19.786,88.764,6.2,100.192-18.689
	c4.1-8.97,9.093-39.626,2.229-53.071c-8.482-16.641-44.352-14.665-69.515-13.46C274.423,110.095,254.939,110.743,248.146,123.232z"
	/>
<g>
	<g>
		<path fill-rule="evenodd" clip-rule="evenodd" fill="#45ADA8" d="M1335.903,441.465c0,1.313,0,2.635,0,3.957
			c-0.867,5.238-6.189,5.301-7.926,9.68c-2.198,5.586-0.962,12.537-1.755,18.484c-1.036,7.818-3.776,14.451-8.358,19.371
			c-16.673,17.857-68.321,17.994-80.986-3.523c-2.643-4.496-4.611-12.736-5.276-20.682c-0.638-7.545-1.439-17.288-7.929-17.605
			c-6.203-0.309-8.09,7.47-8.8,16.725c-1.142,15.035-6.27,26.492-15.844,32.119c-22.047,12.973-63.725,4.92-73.934-11.436
			c-1.338-2.139-2.869-5.51-3.525-7.48c-2.675-8.039,0.271-16.219-3.078-25.527c-1.729-4.812-6.787-4.805-7.924-10.125
			c0-1.322,0-2.644,0-3.957c2.942-9.902,19.193-9.933,30.81-11.002c20.698-1.904,38.435-1.143,55.891,2.201
			c8.073,1.533,17.376,4.029,26.404,3.955c16.824-0.137,30.312-6.453,48.858-7.478c12.04-0.667,24.261,0.464,35.643,1.755
			C1319.579,432.188,1335.005,432.76,1335.903,441.465z M1131.695,448.066c-3.549,6.952-1.471,24.629,0.88,30.363
			c1.993,4.867,6.788,9.648,11.003,11.883c11.828,6.252,35.826,8.197,48.412,0c4.136-2.689,8.362-8.041,10.123-13.203
			c2.298-6.738,3.994-20.313-0.444-28.162c-5.719-10.137-29.155-9.936-46.649-8.803
			C1143.301,440.894,1135.013,441.55,1131.695,448.066z M1245.246,448.5c-8.409,15.445,0.36,36.035,9.234,41.812
			c17.893,11.646,52.255,3.648,58.982-11.004c2.414-5.281,5.354-23.326,1.312-31.242c-4.993-9.795-26.109-8.632-40.923-7.922
			C1260.714,440.767,1249.245,441.148,1245.246,448.5z"/>
	</g>
</g>
<text transform="matrix(1 0 0 1 711 -168)" font-family="'Delius-Regular'" font-size="72">Dads ‘n’ Shows</text>
<g>
	<path fill="#1F383D" d="M454.15,153.845c-2.578-0.623-4.554-1.666-5.931-3.132c-1.378-1.467-2.399-3.2-3.065-5.199
		c-0.667-1.999-1.112-4.198-1.333-6.597c-0.223-2.399-0.466-4.885-0.733-7.464c0.354-1.153,0.82-2.132,1.399-2.932
		c0.577-0.8,0.821-1.91,0.733-3.332c0.977-2.843,1.866-5.598,2.666-8.264c0.8-2.665,1.333-5.418,1.599-8.263
		c0.533-0.8,1.066-1.333,1.599-1.599c0.71-5.065,0.8-10.263,0.267-15.594c-0.533-5.331-1.422-10.262-2.665-14.793
		c0.087-0.977,0.22-1.71,0.399-2.199c0.177-0.487,0.177-0.91,0-1.267c-0.179-0.799,0.087-1.199,0.8-1.199c0.71,0,1.42,0,2.132,0
		c0-1.6-0.29-3.175-0.867-4.731c-0.579-1.554-1.132-3.353-1.666-5.398c0.71-1.599,1.2-3.152,1.466-4.665
		c0.267-1.51,0.754-2.886,1.466-4.131c2.842,0.889,5.641,1.912,8.396,3.065c2.753,1.156,5.465,2.289,8.13,3.398
		c2.666,1.112,5.286,2.178,7.864,3.199c2.575,1.022,5.108,1.845,7.596,2.465c3.82,2.755,7.751,5.488,11.795,8.197
		c4.042,2.711,7.73,5.687,11.062,8.929c3.332,3.244,6.108,6.954,8.33,11.129c2.22,4.177,3.509,9.108,3.865,14.794
		c-0.179,0.533-0.312,0.979-0.4,1.333c-0.09,0.356-0.179,0.712-0.266,1.066c-0.09,0.356-0.133,0.755-0.133,1.199
		c0,0.446,0,1.066,0,1.866c-3.199,5.598-7.243,10.309-12.129,14.128c-4.888,3.821-10.218,7.197-15.993,10.128
		c-5.776,2.933-11.795,5.621-18.06,8.063C466.211,148.492,460.102,151.092,454.15,153.845z M467.211,78.276
		c-0.8,0-1.379,0.178-1.733,0.533c1.066,3.998,1.866,7.775,2.399,11.328c0.533,3.555,0.82,7.11,0.866,10.663
		c0.043,3.555-0.156,7.197-0.6,10.929c-0.446,3.731-1.066,7.776-1.866,12.128c1.154-0.087,2.176-0.311,3.065-0.667
		c0.887-0.354,1.799-0.754,2.732-1.2c0.933-0.444,1.91-0.843,2.932-1.199c1.021-0.354,2.199-0.578,3.532-0.667
		c0.354-0.709,0.821-1.266,1.4-1.666c0.576-0.399,1.086-0.821,1.532-1.267c2.22-0.887,4.442-1.82,6.664-2.799
		c2.22-0.977,4.265-2.086,6.131-3.332c1.866-1.243,3.552-2.665,5.064-4.264c1.51-1.599,2.753-3.509,3.732-5.731
		c-0.712-1.333-1.579-2.465-2.599-3.399c-1.022-0.933-2.088-1.866-3.199-2.798c-1.112-0.933-2.178-1.909-3.199-2.932
		c-1.022-1.021-1.845-2.199-2.465-3.532c-1.423-0.177-2.666-0.554-3.732-1.132c-1.067-0.577-2.089-1.154-3.066-1.733
		c-0.979-0.577-2.022-1.133-3.131-1.666c-1.112-0.533-2.422-0.843-3.932-0.933c-2.312-1.244-4.398-2.11-6.264-2.6
		C469.61,79.854,468.188,79.165,467.211,78.276z"/>
	<path fill="#1F383D" d="M591.96,141.183c-0.533,1.511-1.312,3.044-2.333,4.598c-1.022,1.556-2.222,2.933-3.598,4.132
		c-1.379,1.199-2.911,2.199-4.598,2.999c-1.689,0.799-3.466,1.242-5.332,1.332c-1.156-0.267-1.932-0.556-2.332-0.866
		c-0.4-0.312-0.823-0.6-1.267-0.866c-0.267-0.177-0.512-0.333-0.733-0.467c-0.223-0.133-0.422-0.243-0.6-0.332l-1.599-0.667
		l0.533-1.733c0.177-0.71,0.133-1.266-0.133-1.666c-0.267-0.4-0.8-0.955-1.599-1.666c-0.267-0.266-0.533-0.533-0.8-0.799
		s-0.49-0.533-0.667-0.8l-2.266-2.533l3.599-0.933c2.219-0.621,3.708-1.42,4.465-2.399c0.753-0.977,1.043-2.62,0.866-4.931
		c-1.778-0.354-3.266-0.4-4.465-0.134c-1.2,0.267-2.422,0.58-3.665,0.934c-1.599,0.446-3.222,0.822-4.864,1.132
		c-1.646,0.312-3.445,0.466-5.398,0.466c-0.712,0-1.378-0.021-1.999-0.066c-0.623-0.044-1.29-0.111-2-0.2l-1.333-0.267
		c-0.179-0.976-0.356-1.533-0.533-1.666c-0.179-0.133-0.356-0.287-0.533-0.466c-0.446-0.444-0.912-1.044-1.399-1.8
		c-0.489-0.753-0.6-1.709-0.333-2.866c-0.446-0.799-0.712-1.599-0.799-2.398c-0.533,1.066-0.933,2.178-1.2,3.332l-0.533,1.332
		l-1.333,0.267c-0.179,0.09-0.312,0.29-0.4,0.6c-0.09,0.313-0.133,0.556-0.133,0.733l-0.666,2.266
		c-0.18,0.179-0.356,0.333-0.533,0.466c-0.179,0.133-0.356,0.289-0.533,0.466c-0.179,0.8-0.4,1.6-0.667,2.399
		c-0.266,0.8-0.533,1.556-0.799,2.266c-0.446,1.156-0.823,2.289-1.133,3.398c-0.312,1.113-0.423,2.199-0.333,3.266l-0.533,1.466
		c-0.445,0.533-0.933,0.956-1.466,1.266c-0.533,0.312-1.066,0.6-1.599,0.867c-0.179,0.179-0.422,0.333-0.732,0.466
		c-0.312,0.134-0.556,0.246-0.733,0.334l-0.4,1.466l-1.599,0.266c-0.979,0.177-1.666,0.311-2.066,0.4
		c-0.4,0.087-0.866,0.133-1.399,0.133l-1.333-0.133c-0.979-0.8-1.732-1.444-2.266-1.933c-0.533-0.487-1.156-0.954-1.866-1.399
		c-0.8-1.066-1.244-1.866-1.333-2.399c-0.087-0.533-0.176-1.021-0.267-1.466c-0.176-0.533-0.288-0.977-0.333-1.333
		c-0.043-0.354-0.153-0.621-0.333-0.8l-1.732-1.599l1.466-1.2l0.133-2.265c1.778-4.531,3.665-8.884,5.665-13.062
		c1.999-4.175,4.064-8.44,6.197-12.795c0.71-1.419,1.399-2.842,2.066-4.264c0.667-1.42,1.354-2.843,2.065-4.265
		c-0.089-0.267-0.133-0.577-0.133-0.934c0-0.354,0.087-0.754,0.266-1.199c0.978-1.51,1.777-2.865,2.399-4.065
		c0.621-1.2,1.244-2.42,1.867-3.666c0.709-1.51,1.442-2.976,2.198-4.398c0.754-1.42,1.71-2.886,2.866-4.398l2.132-0.933
		c0.267-0.087,0.577-0.201,0.933-0.334c0.354-0.133,0.753-0.199,1.199-0.199l1.999,0.267c2.487-1.153,4.665-2.776,6.531-4.865
		c1.866-2.086,3.776-4.598,5.731-7.531l1.333-1.866l1.733,1.066c0.443,0.267,1.066,0.512,1.866,0.733
		c0.799,0.223,1.643,0.466,2.532,0.732c1.6,0.356,3.109,0.756,4.531,1.2c1.421,0.446,2.576,1.112,3.466,2
		c0.532,1.422,0.843,2.489,0.933,3.199c0.088,0.711,0.221,1.422,0.4,2.132c0.267,1.512,0.51,3.021,0.733,4.531
		c0.221,1.512,0.377,3.199,0.467,5.064c0.443,1.512,0.82,2.999,1.133,4.465c0.31,1.466,0.6,2.955,0.866,4.465
		c0.443,2.132,0.887,4.198,1.333,6.197c0.444,2,1.021,3.889,1.733,5.665c0.71,0,1.153,0.046,1.333,0.134
		c0.443-0.177,0.91-0.311,1.399-0.4c0.487-0.087,1.043-0.177,1.666-0.267l1.467-0.133l0.533,1.333
		c0.087,0.446,0.533,0.889,1.333,1.332c1.153,0.09,1.999,0.334,2.532,0.733c0.533,0.4,1.02,0.822,1.466,1.266
		c0.354,0.356,0.71,0.623,1.066,0.8l1.999,0.8l-1.066,2c-0.889,1.6-2.155,3.131-3.798,4.599c-1.645,1.466-3.488,2.688-5.531,3.665
		c0.088,0.533,0.154,1.046,0.2,1.533c0.043,0.489,0.154,1,0.333,1.533c0.267,1.512,0.487,3.065,0.667,4.664
		c0.176,1.6,0.176,3.245,0,4.932L591.96,141.183z M553.442,118.125c2.666-0.177,5.085-0.376,7.264-0.599
		c2.175-0.221,4.598-0.601,7.264-1.134c-0.623-2.665-1.29-5.441-1.999-8.33c-0.712-2.886-1.467-5.752-2.266-8.596l-0.8,1.333
		c-1.778,1.866-3.488,3.955-5.131,6.264c-1.646,2.312-3.044,4.487-4.198,6.53c-0.533,0.8-1.066,1.6-1.6,2.399
		c-0.533,0.8-1.022,1.599-1.466,2.398c0.533-0.087,1.044-0.132,1.533-0.132C552.53,118.259,552.997,118.215,553.442,118.125z"/>
	<path fill="#1F383D" d="M666.463,116.393c-0.089,0.446-0.179,0.823-0.267,1.134c-0.089,0.312-0.179,0.599-0.267,0.865
		c-0.089,0.267-0.133,0.601-0.133,1c0,0.4,0,0.912,0,1.533c-2.665,4.71-6.021,8.664-10.062,11.862
		c-4.044,3.198-8.486,6.02-13.328,8.463c-4.844,2.445-9.885,4.665-15.127,6.664c-5.244,2-10.352,4.155-15.327,6.464
		c-2.133-0.533-3.755-1.423-4.865-2.665c-1.112-1.244-1.956-2.688-2.532-4.333c-0.579-1.643-0.979-3.465-1.2-5.464
		c-0.223-1.999-0.423-4.065-0.6-6.198c0.267-0.976,0.644-1.799,1.133-2.466c0.487-0.666,0.732-1.62,0.732-2.864
		c0.71-2.31,1.421-4.577,2.133-6.798c0.71-2.22,1.154-4.486,1.333-6.797c0.267-0.71,0.754-1.2,1.466-1.467
		c0.444-4.265,0.466-8.596,0.066-12.994c-0.399-4.398-1.133-8.507-2.199-12.329c0.088-0.887,0.2-1.532,0.333-1.932
		s0.111-0.688-0.066-0.867c-0.089-0.71,0.154-1.066,0.733-1.066c0.577,0,1.177,0,1.799,0c0-1.333-0.246-2.666-0.733-3.998
		c-0.489-1.333-0.956-2.842-1.399-4.532c0.621-1.333,1.021-2.643,1.199-3.932c0.177-1.287,0.577-2.42,1.2-3.398
		c4.798,1.512,9.396,3.332,13.794,5.464c4.398,2.132,8.729,3.688,12.995,4.665c3.199,2.312,6.485,4.597,9.863,6.864
		c3.375,2.266,6.441,4.754,9.196,7.463c2.753,2.711,5.065,5.798,6.931,9.263C665.13,107.464,666.196,111.595,666.463,116.393z
		 M634.876,123.724c1.866-0.711,3.708-1.466,5.531-2.266c1.82-0.8,3.509-1.709,5.065-2.732c1.553-1.021,2.953-2.199,4.198-3.532
		c1.243-1.333,2.266-2.932,3.065-4.798c-0.533-1.066-1.245-2.02-2.132-2.866c-0.89-0.843-1.778-1.643-2.666-2.399
		c-0.889-0.753-1.755-1.533-2.599-2.332c-0.846-0.8-1.533-1.776-2.066-2.932c-1.156-0.177-2.179-0.51-3.065-1
		c-0.889-0.488-1.756-0.977-2.599-1.466c-0.846-0.487-1.733-0.954-2.666-1.399c-0.933-0.444-2.022-0.71-3.266-0.8
		c-1.955-0.977-3.71-1.687-5.264-2.132c-1.556-0.444-2.732-1.021-3.532-1.733c-0.623,0-1.112,0.133-1.466,0.4
		c0.887,3.377,1.553,6.553,1.999,9.529c0.443,2.978,0.688,5.954,0.733,8.929c0.043,2.978-0.113,6.021-0.467,9.13
		c-0.356,3.111-0.846,6.486-1.466,10.128c0.887-0.087,1.71-0.287,2.466-0.599c0.753-0.311,1.509-0.644,2.266-1
		c0.753-0.354,1.553-0.688,2.398-1c0.844-0.311,1.843-0.511,2.999-0.6c0.266-0.533,0.644-0.978,1.133-1.333
		C633.963,124.568,634.43,124.169,634.876,123.724z"/>
	<path fill="#1F383D" d="M669.395,92.403c0.621-1.866,1.621-3.465,2.999-4.798c1.376-1.333,2.886-2.466,4.532-3.399
		c1.643-0.933,3.353-1.709,5.13-2.332c1.777-0.621,3.466-1.154,5.065-1.599c3.552-1.51,7.351-2.953,11.395-4.332
		c4.042-1.376,8.173-2.599,12.395-3.665c4.219-1.066,8.55-1.753,12.995-2.066c4.441-0.31,9.107,0.246,13.995,1.666
		c0.267,0.889,0.666,1.732,1.199,2.532s1.087,1.6,1.666,2.399c0.577,0.799,1.087,1.579,1.533,2.332
		c0.443,0.756,0.71,1.533,0.799,2.333c0.887,0.8,1.6,1.666,2.132,2.599c0.533,0.933,0.621,2.156,0.267,3.666
		c-0.889,0.712-1.755,1.355-2.599,1.933c-0.845,0.579-1.755,1.089-2.731,1.532c-3.289-0.8-6.62-1.066-9.997-0.8
		c-3.377,0.267-6.397,0.49-9.063,0.667c-0.799-0.8-1.755-1.199-2.865-1.199c-1.112,0-2.266,0.179-3.465,0.533
		c-1.2,0.356-2.399,0.712-3.599,1.066c-1.199,0.356-2.332,0.446-3.398,0.267c-0.889,0.712-1.978,1.178-3.265,1.399
		c-1.289,0.223-2.689,0.422-4.198,0.6c-0.09,0.446,0,0.733,0.267,0.866s0.31,0.422,0.133,0.866c0.533,0.623,1.22,1.066,2.065,1.333
		c0.844,0.267,1.733,0.533,2.666,0.8s1.753,0.6,2.465,1c0.71,0.4,1.2,1.045,1.466,1.933c1.333,0,2.486,0.312,3.465,0.933
		c0.977,0.623,1.776,1.378,2.399,2.266c0.621,0.89,1.087,1.845,1.399,2.865c0.311,1.023,0.467,1.933,0.467,2.733
		c0.267,0.712,0.577,1.022,0.933,0.933c0.354-0.087,0.753,0.089,1.199,0.532c0.267,1.156,0.933,2.333,1.999,3.532
		c1.066,1.2,1.91,2.511,2.532,3.932c0.177,2.221,0.311,4.198,0.4,5.93c0.087,1.733-0.223,3.489-0.934,5.265
		c-1.333,3.289-3.177,6.221-5.531,8.796c-2.355,2.579-5.02,4.865-7.996,6.864c-2.978,1.999-6.154,3.711-9.529,5.131
		c-3.378,1.423-6.664,2.619-9.863,3.599c-0.356-0.09-0.712-0.09-1.066,0c-0.356,0.087-0.446-0.134-0.267-0.667
		c-0.712,0.621-1.489,1.021-2.333,1.2c-0.846,0.177-1.755,0.243-2.732,0.199c-0.979-0.046-1.979-0.112-2.999-0.199
		c-1.022-0.09-1.979-0.046-2.866,0.133c-0.623-0.623-1.178-1.223-1.666-1.799c-0.489-0.578-0.866-1.31-1.133-2.199
		c-0.446,0-0.646-0.221-0.6-0.667c0.044-0.443-0.113-0.666-0.466-0.666c0.533-0.887,0.777-1.4,0.733-1.533
		c-0.045-0.134-0.179-0.244-0.4-0.333c-0.223-0.088-0.423-0.2-0.6-0.334c-0.179-0.133-0.223-0.333-0.133-0.599
		c0.354-0.71,0.487-1.533,0.4-2.465c-0.09-0.934-0.179-1.887-0.267-2.866c-0.09-0.977-0.023-1.909,0.2-2.799
		c0.221-0.886,0.866-1.599,1.933-2.132c3.02,0.356,5.885,0.246,8.597-0.333c2.709-0.577,5.265-1.399,7.664-2.465
		c2.398-1.066,4.686-2.22,6.864-3.465c2.176-1.243,4.331-2.354,6.463-3.332c0.267-0.8,0.644-1.466,1.133-1.999
		c0.487-0.533,1-1.021,1.533-1.466c0.533-0.444,1.021-0.933,1.467-1.466c0.443-0.533,0.753-1.2,0.933-2
		c0.087-0.62-0.067-1-0.467-1.132s-0.6-0.467-0.6-1l-1.466-0.399c-1.688-0.977-3.599-1.799-5.731-2.466
		c-2.132-0.666-3.955-1.399-5.465-2.199c-0.978,0.533-1.888,0.666-2.732,0.4c-0.845-0.267-1.932-0.533-3.265-0.8
		c-3.022-0.177-5.931-0.488-8.729-0.934c-2.799-0.443-5.487-1.243-8.063-2.398c-0.179-0.444-0.4-0.844-0.667-1.199
		c-0.267-0.354-0.756-0.444-1.466-0.267c-0.533-0.71-1.067-1.4-1.599-2.066c-0.534-0.667-1.023-1.399-1.467-2.199
		c0.177-1.066,0.311-1.977,0.4-2.732c0.088-0.754-0.179-1.487-0.8-2.199c0.354-1.153,0.621-2.086,0.8-2.799
		C669.572,94.492,669.572,93.559,669.395,92.403z"/>
</g>
<g>
	<path fill="#45ADA8" d="M876.028,471.475c0,0.369-0.069,0.828-0.208,1.381s-0.207,1.084-0.207,1.589
		c0,0.507,0.09,0.945,0.276,1.312c0.183,0.369,0.505,0.553,0.967,0.553c-1.567,2.396-3.156,4.858-4.766,7.392
		c-1.613,2.533-3.108,5.111-4.49,7.736c-1.381,2.625-2.51,5.229-3.385,7.806c-0.876,2.579-1.36,5.111-1.451,7.599
		c-0.093,1.475-0.853,2.303-2.279,2.486c-1.429,0.186-3.063,0.069-4.904-0.346c-1.844-0.414-3.685-0.967-5.526-1.657
		c-1.844-0.69-3.178-1.22-4.006-1.589c-0.369-0.829-0.646-1.796-0.829-2.901c-0.186-1.104-0.3-2.231-0.345-3.385
		c-0.048-1.15-0.093-2.302-0.138-3.454c-0.047-1.15-0.117-2.141-0.208-2.971c0.736-1.012,1.265-2.348,1.589-4.006
		c0.322-1.658,0.712-3.178,1.174-4.559c0.367-0.92,0.574-1.496,0.622-1.728c0.045-0.229,0.069-0.366,0.069-0.414
		c0-0.046,0.021-0.184,0.069-0.415c0.045-0.229,0.298-0.805,0.76-1.727c0.183-0.46,0.207-0.851,0.069-1.174
		c-0.138-0.322-0.117-0.622,0.069-0.898c0.091-0.184,0.298-0.367,0.622-0.553c0.321-0.184,0.574-0.367,0.76-0.553
		c0.276-0.553,0.391-0.967,0.345-1.243c-0.047-0.276,0.16-0.69,0.622-1.243c0.367-0.46,0.875-1.082,1.52-1.865
		c0.643-0.781,0.967-1.541,0.967-2.279c1.289-0.829,2.487-1.703,3.592-2.625c1.105-0.92,2.67-1.61,4.697-2.072
		c0.459,0.275,1.312,0.738,2.556,1.381c1.243,0.646,2.578,1.268,4.006,1.865c1.427,0.601,2.833,1.152,4.214,1.658
		C874.231,471.084,875.29,471.383,876.028,471.475z"/>
	<path fill="#45ADA8" d="M948.149,489.572c-0.093,0.462-0.3,0.715-0.622,0.76c-0.323,0.047-0.576,0.301-0.76,0.76
		c-0.369,1.015-0.6,1.637-0.69,1.865c-0.093,0.23-0.186,0.369-0.276,0.414c-0.093,0.048-0.207,0.162-0.346,0.346
		c-0.138,0.186-0.393,0.738-0.76,1.658c-0.645,1.291-1.45,2.604-2.418,3.938c-0.967,1.336-1.588,2.648-1.865,3.938
		c-1.29,1.104-2.879,2.51-4.766,4.213c-1.889,1.705-3.661,2.88-5.318,3.523c-0.83-0.367-2.143-0.943-3.938-1.727
		c-1.797-0.782-3.502-1.703-5.112-2.764c-1.612-1.058-2.832-2.163-3.661-3.316c-0.829-1.15-0.738-2.279,0.276-3.385
		c1.658-1.748,3.108-3.844,4.353-6.285c1.242-2.439,2.348-5.064,3.314-7.875c0.968-2.809,1.797-5.709,2.487-8.703
		c0.69-2.992,1.312-5.872,1.865-8.635c0.367,0.369,0.76,0.483,1.175,0.346c0.414-0.139,0.781-0.367,1.105-0.691
		c0.32-0.322,0.643-0.713,0.967-1.174c0.321-0.461,0.574-0.83,0.76-1.105c0.553,0.462,1.496,1.014,2.832,1.658
		c1.334,0.645,2.739,1.267,4.213,1.864c1.473,0.601,2.854,1.13,4.145,1.589c1.289,0.462,2.211,0.738,2.764,0.829
		c1.105,1.751,1.703,3.339,1.796,4.767c0.091,1.429,0.321,2.925,0.69,4.49c-0.553,0.461-0.876,1.221-0.967,2.279
		c-0.093,1.06-0.186,1.819-0.275,2.279c-0.094,0.738-0.256,1.174-0.484,1.312c-0.23,0.139-0.438,0.531-0.621,1.174
		c-0.094,0.186-0.069,0.463,0.068,0.829C948.219,489.112,948.24,489.389,948.149,489.572z"/>
</g>
<g>
	<path fill="#45ADA8" d="M787.657,54.019c0,0.356-0.067,0.8-0.2,1.333c-0.133,0.533-0.2,1.045-0.2,1.532
		c0,0.49,0.087,0.913,0.267,1.267c0.176,0.356,0.487,0.533,0.933,0.533c-1.512,2.312-3.044,4.687-4.598,7.13
		c-1.555,2.444-2.999,4.931-4.332,7.464c-1.333,2.532-2.422,5.043-3.266,7.53c-0.845,2.488-1.312,4.931-1.399,7.33
		c-0.09,1.423-0.823,2.222-2.199,2.399c-1.379,0.179-2.955,0.067-4.731-0.333c-1.779-0.4-3.555-0.933-5.331-1.599
		c-1.779-0.667-3.065-1.177-3.865-1.533c-0.356-0.8-0.623-1.732-0.8-2.799c-0.179-1.066-0.29-2.153-0.333-3.266
		c-0.046-1.109-0.089-2.22-0.133-3.332c-0.045-1.11-0.112-2.066-0.2-2.866c0.71-0.977,1.22-2.266,1.532-3.865
		c0.311-1.599,0.688-3.065,1.133-4.398c0.354-0.887,0.554-1.443,0.599-1.666c0.044-0.221,0.067-0.354,0.067-0.399
		c0-0.044,0.021-0.178,0.066-0.4c0.044-0.221,0.288-0.777,0.734-1.667c0.176-0.443,0.199-0.82,0.066-1.133
		c-0.133-0.311-0.112-0.6,0.067-0.866c0.087-0.177,0.288-0.354,0.6-0.533c0.311-0.177,0.554-0.354,0.733-0.533
		c0.267-0.533,0.377-0.933,0.333-1.199c-0.046-0.267,0.153-0.667,0.599-1.199c0.354-0.444,0.844-1.043,1.466-1.8
		c0.62-0.753,0.933-1.487,0.933-2.199c1.244-0.799,2.399-1.644,3.466-2.533c1.066-0.887,2.576-1.553,4.531-2
		c0.443,0.267,1.266,0.712,2.466,1.333c1.199,0.623,2.486,1.223,3.865,1.8c1.376,0.579,2.733,1.112,4.065,1.599
		C785.924,53.642,786.944,53.931,787.657,54.019z"/>
	<path fill="#45ADA8" d="M794.592,128.122c-0.8,0.179-1.378,0.646-1.733,1.399c-0.356,0.755-0.689,1.533-1,2.333
		c-0.312,0.8-0.623,1.532-0.933,2.198c-0.312,0.667-0.779,1-1.399,1c-0.09,0.712-0.333,1.333-0.733,1.866
		c-0.4,0.532-0.779,1.089-1.133,1.666c-0.356,0.578-0.623,1.199-0.8,1.865c-0.179,0.667-0.089,1.446,0.267,2.332
		c-0.712,0.533-1.156,1.289-1.333,2.266c-0.18,0.979-0.379,1.911-0.6,2.799c-0.223,0.889-0.6,1.645-1.133,2.265
		c-0.533,0.623-1.512,0.89-2.932,0.801c-0.267,0.355-0.312,0.577-0.133,0.666c0.177,0.09,0.31,0.4,0.4,0.933
		c-0.979-0.177-1.712-0.113-2.2,0.2c-0.489,0.31-1.089,0.51-1.799,0.6c-1.689-0.533-3.088-1.466-4.198-2.799
		c-1.112-1.333-2.089-2.82-2.932-4.465c-0.846-1.643-1.599-3.309-2.266-4.998c-0.667-1.686-1.311-3.153-1.933-4.397
		c0.266-0.977,0.312-1.933,0.133-2.866c-0.177-0.933-0.487-1.709-0.933-2.333c4.353-9.24,9.107-19.102,14.261-29.587
		c5.152-10.483,10.04-20.835,14.661-31.054c2.043,0.8,4.065,1.712,6.064,2.733c2,1.022,3.819,2.199,5.464,3.531
		c1.643,1.333,3.043,2.866,4.199,4.598c1.153,1.732,1.91,3.666,2.265,5.798c-0.179,0.533-0.378,0.733-0.6,0.6
		c-0.223-0.133-0.422-0.067-0.6,0.199c0.354,0.446,0.554,0.756,0.6,0.933c0.044,0.179,0.044,0.356,0,0.533
		c-0.045,0.179-0.066,0.422-0.066,0.733c0,0.312,0.133,0.732,0.4,1.266c-0.356-0.088-0.6-0.044-0.733,0.133
		c-0.133,0.179-0.422,0.179-0.866,0c0.354,0.978,0.467,1.778,0.333,2.399c-0.133,0.622-0.333,1.179-0.6,1.666
		c-0.266,0.49-0.489,1.023-0.666,1.6c-0.179,0.579-0.133,1.312,0.133,2.199c-0.267,0-0.467,0.067-0.6,0.2
		c-0.133,0.133-0.246,0.267-0.333,0.4c-0.089,0.133-0.2,0.267-0.333,0.4s-0.333,0.156-0.6,0.067c0.266,1.956,0.354,3.91,0.266,5.864
		c-0.089,1.955-0.156,3.931-0.2,5.931c-0.045,1.999-0.023,4.087,0.066,6.264c0.087,2.179,0.4,4.421,0.933,6.731
		c3.199-1.866,5.752-4.265,7.664-7.198c1.91-2.932,3.465-6.217,4.665-9.862c1.199-3.642,2.109-7.551,2.731-11.729
		c0.622-4.175,1.288-8.44,2-12.794c0.8-0.799,1.42-1.776,1.866-2.932c0.443-1.155,0.843-2.377,1.2-3.666
		c0.354-1.287,0.709-2.576,1.066-3.865c0.354-1.288,0.8-2.466,1.333-3.532c1.333,0.179,2.465,0.6,3.398,1.266
		c0.933,0.666,1.799,1.378,2.599,2.133c0.8,0.755,1.643,1.466,2.532,2.132c0.887,0.666,2,1.089,3.332,1.266
		c1.066,1.511,2.043,2.977,2.932,4.398c0.887,1.422,1.466,2.932,1.732,4.531c-0.445,0.712-0.778,1.512-0.999,2.399
		c-0.223,0.89-0.467,1.779-0.733,2.666c-0.267,0.89-0.622,1.712-1.066,2.466c-0.446,0.756-1.066,1.399-1.866,1.933
		c-0.267,2.312-0.6,4.421-1,6.331c-0.399,1.912-0.799,3.798-1.199,5.665c-0.4,1.866-0.733,3.798-1,5.798
		c-0.267,1.999-0.356,4.197-0.267,6.596c-0.712,2.045-1.466,4.221-2.266,6.531c-0.8,2.312-1.422,4.398-1.866,6.265
		c-1.422,1.155-2.532,2.531-3.332,4.131c-0.799,1.6-1.645,3.198-2.532,4.798c-0.356,0.356-0.58,0.446-0.667,0.267
		c-0.09-0.177-0.4-0.31-0.933-0.399c0.087,0.356,0.087,0.622,0,0.799c-0.09,0.179-0.2,0.334-0.333,0.468
		c-0.133,0.133-0.223,0.332-0.267,0.599c-0.046,0.267,0.021,0.623,0.2,1.066c-1.245,0.534-2.355,1.289-3.333,2.266
		c-0.979,0.979-2.022,1.866-3.131,2.665c-1.112,0.8-2.445,1.333-3.999,1.601c-1.556,0.267-3.578-0.044-6.064-0.934
		c-3.645-2.666-6.864-5.732-9.663-9.197S796.369,132.919,794.592,128.122z"/>
	<path fill="#45ADA8" d="M883.756,71.478c-0.09,0.446-0.29,0.689-0.6,0.733c-0.312,0.045-0.556,0.289-0.732,0.732
		c-0.356,0.979-0.579,1.579-0.667,1.8c-0.09,0.223-0.179,0.356-0.267,0.4c-0.09,0.046-0.2,0.156-0.333,0.333
		c-0.133,0.179-0.379,0.712-0.733,1.599c-0.623,1.245-1.399,2.512-2.333,3.798c-0.933,1.29-1.533,2.556-1.799,3.799
		c-1.245,1.066-2.778,2.421-4.598,4.065c-1.822,1.645-3.532,2.777-5.131,3.398c-0.8-0.354-2.066-0.911-3.798-1.666
		c-1.733-0.754-3.378-1.644-4.932-2.666c-1.555-1.021-2.731-2.087-3.531-3.2c-0.799-1.109-0.712-2.198,0.267-3.265
		c1.6-1.688,2.998-3.709,4.198-6.064c1.199-2.354,2.266-4.886,3.199-7.597c0.933-2.709,1.733-5.508,2.399-8.396
		c0.667-2.886,1.266-5.664,1.799-8.33c0.354,0.356,0.733,0.467,1.133,0.333s0.753-0.354,1.066-0.667
		c0.31-0.311,0.62-0.688,0.933-1.133c0.311-0.443,0.554-0.8,0.733-1.066c0.533,0.446,1.443,0.979,2.733,1.6
		c1.287,0.623,2.643,1.223,4.064,1.799c1.42,0.579,2.753,1.089,3.999,1.533c1.243,0.445,2.132,0.711,2.666,0.8
		c1.066,1.688,1.643,3.221,1.732,4.597c0.087,1.379,0.311,2.823,0.667,4.332c-0.533,0.446-0.846,1.179-0.933,2.199
		c-0.09,1.022-0.179,1.755-0.266,2.199c-0.09,0.712-0.246,1.133-0.467,1.266c-0.222,0.133-0.422,0.512-0.599,1.133
		c-0.09,0.179-0.067,0.446,0.066,0.799C883.822,71.034,883.843,71.301,883.756,71.478z"/>
</g>
<g>
	<path fill="#1F383D" d="M441.783,190.803c0.62-1.865,1.62-3.465,2.999-4.797c1.376-1.333,2.887-2.466,4.532-3.399
		c1.643-0.932,3.353-1.709,5.131-2.333c1.776-0.619,3.465-1.152,5.064-1.599c3.552-1.51,7.351-2.953,11.395-4.331
		c4.042-1.377,8.173-2.6,12.395-3.665c4.219-1.066,8.551-1.753,12.995-2.066c4.442-0.311,9.107,0.246,13.995,1.666
		c0.267,0.89,0.666,1.733,1.199,2.532c0.533,0.8,1.087,1.6,1.666,2.399c0.577,0.8,1.087,1.578,1.533,2.332
		c0.443,0.756,0.71,1.534,0.799,2.333c0.887,0.8,1.6,1.665,2.132,2.6c0.533,0.932,0.621,2.153,0.267,3.664
		c-0.889,0.712-1.755,1.355-2.599,1.933c-0.845,0.579-1.755,1.088-2.732,1.533c-3.289-0.8-6.62-1.066-9.996-0.8
		c-3.377,0.267-6.397,0.489-9.063,0.666c-0.799-0.8-1.755-1.199-2.865-1.199c-1.112,0-2.266,0.179-3.465,0.533
		c-1.2,0.354-2.399,0.711-3.599,1.066c-1.199,0.354-2.332,0.445-3.398,0.267c-0.889,0.712-1.979,1.178-3.266,1.399
		c-1.289,0.223-2.688,0.423-4.198,0.6c-0.09,0.445,0,0.733,0.267,0.865c0.267,0.134,0.311,0.423,0.133,0.867
		c0.533,0.622,1.22,1.066,2.066,1.333c0.843,0.267,1.732,0.533,2.666,0.8s1.753,0.599,2.465,0.999c0.71,0.4,1.2,1.045,1.467,1.933
		c1.333,0,2.486,0.312,3.465,0.932c0.977,0.624,1.776,1.38,2.399,2.268c0.621,0.89,1.087,1.845,1.399,2.865
		c0.311,1.021,0.466,1.932,0.466,2.732c0.267,0.712,0.577,1.022,0.933,0.933c0.354-0.088,0.753,0.09,1.199,0.532
		c0.267,1.156,0.933,2.333,2,3.532c1.066,1.2,1.909,2.511,2.532,3.933c0.177,2.222,0.31,4.197,0.4,5.931
		c0.087,1.731-0.223,3.488-0.933,5.265c-1.333,3.288-3.178,6.22-5.531,8.796c-2.355,2.578-5.021,4.864-7.997,6.864
		c-2.978,1.998-6.153,3.711-9.529,5.13c-3.378,1.423-6.664,2.62-9.863,3.6c-0.356-0.09-0.712-0.09-1.066,0
		c-0.356,0.088-0.446-0.134-0.267-0.667c-0.712,0.621-1.489,1.021-2.333,1.2c-0.846,0.177-1.755,0.244-2.732,0.2
		c-0.979-0.046-1.979-0.112-2.999-0.2c-1.022-0.09-1.978-0.047-2.866,0.133c-0.622-0.622-1.178-1.223-1.666-1.799
		c-0.49-0.577-0.867-1.311-1.133-2.2c-0.446,0-0.645-0.22-0.6-0.665c0.044-0.443-0.113-0.667-0.466-0.667
		c0.533-0.887,0.777-1.399,0.733-1.533c-0.046-0.133-0.179-0.243-0.4-0.333c-0.223-0.087-0.423-0.2-0.6-0.333
		c-0.179-0.134-0.223-0.332-0.133-0.599c0.354-0.711,0.487-1.533,0.4-2.467c-0.089-0.933-0.179-1.887-0.267-2.866
		c-0.089-0.977-0.023-1.908,0.2-2.798c0.221-0.887,0.866-1.599,1.933-2.132c3.02,0.356,5.885,0.245,8.597-0.333
		c2.709-0.577,5.265-1.4,7.664-2.467s4.686-2.219,6.864-3.465c2.176-1.243,4.331-2.353,6.464-3.332
		c0.267-0.8,0.644-1.466,1.133-1.999c0.487-0.533,1-1.021,1.533-1.466c0.533-0.443,1.021-0.934,1.466-1.466
		c0.443-0.533,0.753-1.2,0.933-2c0.087-0.62-0.067-1-0.467-1.133s-0.599-0.466-0.599-0.999l-1.466-0.399
		c-1.689-0.978-3.599-1.8-5.731-2.467c-2.132-0.666-3.955-1.399-5.464-2.199c-0.979,0.533-1.888,0.666-2.732,0.4
		c-0.846-0.267-1.933-0.533-3.266-0.8c-3.021-0.177-5.931-0.488-8.729-0.934c-2.799-0.442-5.487-1.243-8.063-2.398
		c-0.179-0.444-0.4-0.844-0.667-1.199c-0.267-0.354-0.756-0.443-1.466-0.267c-0.533-0.71-1.066-1.399-1.599-2.066
		c-0.533-0.666-1.023-1.398-1.466-2.198c0.177-1.066,0.31-1.977,0.4-2.733c0.087-0.753-0.179-1.486-0.8-2.199
		c0.354-1.152,0.621-2.086,0.8-2.797C441.959,192.892,441.959,191.96,441.783,190.803z"/>
	<path fill="#1F383D" d="M571.196,237.851c0.177,2.312-0.089,4.222-0.8,5.731c-0.711,1.512-1.688,2.8-2.932,3.865
		c-1.246,1.066-2.666,1.911-4.265,2.531c-1.599,0.623-3.155,1.2-4.664,1.733c-0.712-0.446-1.4-0.912-2.066-1.399
		c-0.667-0.486-1.445-0.867-2.332-1.134c-1.156-2.132-2.266-4.019-3.332-5.663c-1.066-1.644-1.556-3.533-1.466-5.665
		c0-0.087,0.066-0.576,0.2-1.466c0.133-0.887,0.311-1.865,0.533-2.932c0.221-1.066,0.4-2.066,0.533-2.999s0.2-1.443,0.2-1.532
		c-2.045,0.179-4.177,0.622-6.398,1.333c-2.222,0.712-4.377,1.555-6.464,2.531c-2.088,0.979-4.044,1.955-5.864,2.932
		c-1.822,0.979-3.311,1.823-4.464,2.533c0,0.267-0.179,0.912-0.533,1.932c-0.356,1.024-0.8,2.09-1.333,3.198
		c-0.533,1.113-1.112,2.112-1.733,3.001c-0.623,0.888-1.245,1.332-1.866,1.332c0.088,0.267,0.221,0.533,0.4,0.8
		c0.177,0.267,0.177,0.623,0,1.066c-1.245,0.356-2.355,0.821-3.332,1.398c-0.979,0.578-2,1.066-3.066,1.467
		c-1.066,0.399-2.222,0.6-3.465,0.6c-1.246,0-2.711-0.445-4.398-1.333c0-0.533-0.223-1-0.667-1.399
		c-0.446-0.4-0.913-0.753-1.4-1.066c-0.489-0.31-0.912-0.576-1.266-0.8c-0.356-0.221-0.533-0.42-0.533-0.6
		c-0.446,0.09-0.623-0.221-0.533-0.933c0.087-0.71,0.443-0.888,1.066-0.532c-0.979-1.244-1.579-2.333-1.799-3.267
		c-0.22-0.933-0.733-2.109-1.533-3.531c0.179-0.177,0.333-0.488,0.467-0.934c0.133-0.444,0.246-0.843,0.333-1.199
		c0.089-0.354,0.223-0.621,0.4-0.8c0.177-0.177,0.4-0.134,0.667,0.133c-0.179-0.8-0.179-1.465,0-1.998
		c0.177-0.533,0.354-1.021,0.533-1.468c0.177-0.442,0.31-0.886,0.399-1.332c0.087-0.443-0.045-0.932-0.399-1.465
		c1.42-1.954,2.353-4.066,2.799-6.331c0.443-2.267,0.71-4.332,0.8-6.198c0.62-0.62,1.176-1.51,1.666-2.665
		c0.487-1.155,0.867-2.333,1.133-3.532c0.266-1.199,0.376-2.353,0.333-3.465c-0.045-1.11-0.199-2.02-0.466-2.732
		c0.087-0.443,0.576-0.577,1.466-0.399c0.533-2.933,0.91-6.243,1.133-9.93c0.221-3.686,0.6-7.197,1.133-10.529
		c0.533-3.331,1.42-6.265,2.666-8.796c1.243-2.533,3.242-4.199,5.998-4.998c0.533,1.865,1.221,3.511,2.066,4.932
		c0.843,1.422,1.776,2.777,2.799,4.064c1.021,1.288,2.042,2.6,3.065,3.932c1.021,1.333,1.976,2.845,2.866,4.531
		c-0.09,1.689-0.267,3.645-0.533,5.864c-0.267,2.223-0.6,4.488-1,6.798c-0.4,2.312-0.799,4.531-1.199,6.664
		c-0.4,2.132-0.779,3.954-1.133,5.464c0.088,0.445,0.333,0.712,0.733,0.8c0.4,0.089,0.466,0.489,0.2,1.2
		c2.133-0.533,4.353-1.022,6.664-1.467c2.31-0.443,4.619-0.934,6.93-1.467c2.31-0.533,4.552-1.132,6.731-1.799
		c2.176-0.666,4.198-1.486,6.064-2.466c0.444-3.465,1.021-6.93,1.733-10.395c0.71-3.465,0.8-7.02,0.267-10.664
		c0.443-0.354,0.8-0.799,1.066-1.332s0.709-0.887,1.333-1.066c-0.446-1.687-0.623-3.465-0.533-5.331
		c0.087-1.866,0.42-3.642,0.999-5.331c0.577-1.687,1.421-3.132,2.532-4.331c1.11-1.2,2.466-1.978,4.065-2.333
		c0.977,1.422,1.821,2.955,2.532,4.599c0.71,1.646,1.444,3.288,2.199,4.932c0.754,1.645,1.553,3.198,2.399,4.665
		c0.844,1.466,1.933,2.731,3.266,3.798c0.267,2.578,0.467,5.244,0.6,7.996c0.133,2.756,0.244,5.555,0.333,8.397
		c-0.712,3.378-1.489,6.643-2.333,9.796c-0.846,3.155-1.445,6.51-1.799,10.062c-0.623,0.712-1.112,1.512-1.466,2.398
		c-0.356,0.89-0.712,1.799-1.066,2.732c-0.356,0.933-0.756,1.821-1.2,2.666c-0.445,0.845-0.978,1.578-1.6,2.198
		c0.355,1.066,0.421,2.066,0.201,3C570.24,235.385,570.484,236.518,571.196,237.851z"/>
	<path fill="#1F383D" d="M660.093,210.795c-0.09,1.066,0,2.089,0.266,3.066c0.267,0.979,0.6,1.932,1,2.865
		c0.4,0.933,0.776,1.889,1.132,2.865c0.354,0.979,0.621,1.956,0.8,2.932c0.177,1.246,0.177,2.599,0,4.065
		c-0.179,1.466-0.489,2.888-0.933,4.265c-0.446,1.379-1.022,2.622-1.732,3.731c-0.712,1.113-1.555,1.933-2.532,2.466
		c-1.245,1.6-2.755,2.845-4.531,3.732c-1.778,0.889-3.421,1.955-4.931,3.199c-0.979,0.622-2.066,1.066-3.265,1.333
		c-1.2,0.267-2.423,0.533-3.666,0.8c-0.979,0.532-2.132,1.088-3.465,1.665c-1.333,0.578-2.712,1.111-4.132,1.6
		c-1.422,0.488-2.845,0.845-4.265,1.065c-1.422,0.223-2.665,0.291-3.731,0.201c-2.666,0.976-5.265,1.619-7.797,1.932
		c-2.533,0.311-5.488,0.11-8.863-0.6c-3.199,0.443-6.154,0.311-8.863-0.4c-2.711-0.712-5.11-1.842-7.197-3.398
		c-2.089-1.554-3.911-3.419-5.465-5.598c-1.555-2.175-2.821-4.465-3.798-6.864c-0.712-5.064-0.533-9.662,0.533-13.794
		s2.599-7.95,4.598-11.462c1.999-3.509,4.286-6.751,6.864-9.729c2.576-2.975,5.065-5.885,7.464-8.729
		c0.533,0.178,0.954,0.156,1.266-0.068c0.311-0.22,0.6-0.532,0.867-0.932c0.267-0.401,0.554-0.778,0.866-1.133
		c0.31-0.355,0.687-0.577,1.133-0.667c0.621-1.333,1.533-2.332,2.732-2.998c1.199-0.668,2.153-1.621,2.866-2.866
		c0.8-0.177,1.466-0.442,1.999-0.799c0.533-0.354,1.043-0.754,1.533-1.201c0.487-0.442,1-0.865,1.533-1.266
		c0.533-0.399,1.154-0.687,1.866-0.866v-1.466c1.599-0.71,2.776-1.532,3.532-2.466c0.753-0.933,1.666-2.066,2.732-3.398
		c0.799-0.088,1.443-0.134,1.932-0.134c0.488,0,1.221-0.087,2.2-0.266c0.71-1.243,1.354-2.177,1.933-2.799
		c0.577-0.621,1.443-1.288,2.599-2c1.066,0.533,2.243,0.889,3.532,1.066c1.287,0.179,2.419,0.756,3.398,1.733
		c0.087,0.889,0.354,1.578,0.799,2.064c0.443,0.49,0.933,0.934,1.466,1.333c0.533,0.401,1.043,0.823,1.533,1.267
		c0.487,0.445,0.82,1.066,1,1.866c0.354,0.089,0.6,0.046,0.733-0.133c0.133-0.178,0.377-0.222,0.733-0.135
		c0.267,1.245,0.577,2.067,0.933,2.466c0.354,0.4,0.71,1.18,1.067,2.333c-0.446,0.89-0.779,1.8-1,2.733
		c-0.223,0.932-0.779,1.621-1.666,2.063c-0.089,0.624,0.087,0.957,0.533,1.001c0.444,0.046,0.71,0.289,0.8,0.733
		c0.087,0.799-0.046,1.378-0.4,1.732c2.132,3.466,4.042,7.131,5.731,10.995C656.049,203.665,657.96,207.33,660.093,210.795z
		 M643.433,223.457c0.354-0.977,0.821-1.777,1.4-2.399c0.577-0.62,0.91-1.554,0.999-2.799c-0.445-0.71-0.712-1.267-0.8-1.666
		c-0.089-0.399-0.133-1.043-0.133-1.932c-1.956-2.753-3.644-5.709-5.064-8.863c-1.423-3.152-3.022-6.109-4.798-8.864
		c-0.179,0.356-0.489,0.713-0.933,1.066c-0.446,0.356-0.933,0.267-1.466-0.267c-0.179,0.713-0.489,1.222-0.933,1.533
		c-0.446,0.312-0.933,0.446-1.466,0.399c-0.533-0.043-1.089-0.178-1.667-0.399c-0.579-0.221-1.089-0.51-1.532-0.866
		c-2.578,2.045-5.155,4.044-7.731,5.997c-2.578,1.955-4.888,4.222-6.93,6.798c-0.356,0.18-0.579,0.245-0.666,0.2
		c-0.09-0.045-0.356,0.022-0.8,0.199c-0.712,1.689-1.578,3.223-2.599,4.599c-1.023,1.378-2.022,2.777-2.999,4.198
		c-0.979,1.423-1.823,2.932-2.532,4.531c-0.712,1.601-1.112,3.466-1.2,5.599c1.509,1.244,3.286,1.998,5.331,2.265
		c2.043,0.267,4.152,0.312,6.331,0.134c2.176-0.178,4.309-0.467,6.397-0.865c2.086-0.401,4.02-0.602,5.798-0.602
		c3.732-0.887,6.93-2.065,9.596-3.531C637.702,226.455,640.501,224.969,643.433,223.457z"/>
	<path fill="#1F383D" d="M743.259,252.512c-3.111-1.423-5.577-3.51-7.396-6.265c-1.822-2.752-3.622-5.818-5.397-9.196
		c-0.267-0.533-0.533-1.066-0.8-1.6c-0.267-0.533-0.534-1.02-0.8-1.465l-1.866-3.465l-1.066-2.133l-1.6,1.465l-2.399,2.133
		l-1.333,1.332c-2.311,2.133-4.644,4.245-6.997,6.331c-2.355,2.09-4.844,3.956-7.464,5.598c-2.622,1.646-5.377,2.979-8.263,3.999
		c-2.889,1.022-6.021,1.576-9.396,1.666l-2.932-1.467c-1.688-0.886-3.111-1.686-4.265-2.398c-1.156-0.71-2.489-1.82-3.998-3.331
		c-0.446-0.8-0.823-1.555-1.133-2.267c-0.312-0.71-0.646-1.42-1-2.132c-0.979-1.776-1.779-3.376-2.399-4.798
		c-0.622-1.421-1.245-3.02-1.866-4.798c0.267-1.244,0.666-3.354,1.199-6.331c0.533-2.977,1.177-6.242,1.933-9.797
		c0.753-3.552,1.553-7.129,2.399-10.729c0.843-3.599,1.709-6.73,2.599-9.396c0.8-2.31,1.709-4.752,2.731-7.33
		c1.021-2.576,2.132-4.952,3.333-7.131c1.2-2.176,2.509-4.042,3.932-5.598c1.42-1.553,2.932-2.465,4.531-2.731
		c0.443,0.623,0.933,1.065,1.466,1.333c0.533,0.266,1.021,0.489,1.466,0.666c1.244,1.778,2.466,3.288,3.666,4.532
		c1.199,1.244,2.599,2.487,4.198,3.731c-0.446,2.222-1.09,4.688-1.933,7.397c-0.846,2.711-1.732,5.421-2.666,8.129
		c-0.933,2.712-1.845,5.354-2.732,7.93c-0.889,2.578-1.599,4.798-2.132,6.664c-0.533,1.512-0.979,3.199-1.333,5.065
		c-0.799,3.288-1.556,7.775-2.266,13.46c1.066-0.267,2.22-0.843,3.465-1.731c1.244-0.887,2.443-1.821,3.599-2.8
		c1.333-1.065,2.666-2.266,3.998-3.598c1.687-1.688,3.109-3.243,4.265-4.665c1.154-1.42,2.243-2.887,3.265-4.398
		c1.021-1.51,2.066-3.176,3.132-4.997c1.066-1.82,2.354-3.977,3.865-6.466c1.333-2.132,2.732-4.417,4.198-6.864
		c1.466-2.44,2.933-4.797,4.398-7.062c1.466-2.267,2.909-4.333,4.332-6.199c1.42-1.865,2.709-3.33,3.865-4.396
		c0.71,0.889,1.621,1.731,2.732,2.531c1.11,0.799,2.286,1.423,3.531,1.865c0.533,0.801,1.043,1.534,1.533,2.2
		c0.487,0.666,0.954,1.265,1.399,1.798c0.534,0.801,1.044,1.558,1.533,2.268c0.487,0.712,0.954,1.423,1.399,2.132
		c-0.09,0.623-0.223,1.423-0.4,2.399c-0.179,0.979-0.379,2.045-0.6,3.198c-0.223,1.156-0.467,2.332-0.733,3.532
		c-0.267,1.199-0.533,2.333-0.8,3.398c-0.711,3.377-1.245,5.91-1.6,7.597c-0.356,1.689-0.599,3.021-0.732,3.998
		c-0.133,0.979-0.223,1.8-0.267,2.466c-0.046,0.667-0.067,1.579-0.067,2.732c-0.089,0.89-0.045,1.778,0.133,2.666
		c0.088,0.8,0.267,1.645,0.533,2.532c0.267,0.89,0.621,1.688,1.066,2.398l5.332-4.131c1.51-1.154,2.953-2.733,4.331-4.732
		c1.376-1.999,2.709-4.309,3.998-6.93c1.288-2.62,2.553-5.485,3.799-8.597c1.243-3.109,2.486-6.264,3.731-9.462
		c1.866-4.71,3.753-9.285,5.665-13.728c1.91-4.443,3.753-7.864,5.531-10.264c1.953,1.245,3.665,2.512,5.131,3.798
		c1.466,1.289,2.732,2.689,3.798,4.198c1.066,1.514,1.933,3.245,2.599,5.199c0.666,1.956,1.133,4.265,1.399,6.93
		c-1.599,3.111-3.132,6.311-4.598,9.596c-1.466,3.288-2.866,6.576-4.199,9.863c-1.778,4.265-3.622,8.53-5.531,12.795
		c-1.912,4.265-4.021,8.33-6.331,12.194c-2.311,3.865-4.888,7.42-7.73,10.663c-2.845,3.244-6.131,5.977-9.862,8.196
		c-0.979-0.267-1.822-0.4-2.532-0.4C745.436,251.312,744.236,251.712,743.259,252.512z"/>
	<path fill="#1F383D" d="M782.976,190.803c0.621-1.865,1.621-3.465,2.999-4.797c1.376-1.333,2.887-2.466,4.532-3.399
		c1.643-0.932,3.353-1.709,5.131-2.333c1.776-0.619,3.466-1.152,5.065-1.599c3.552-1.51,7.351-2.953,11.395-4.331
		c4.042-1.377,8.173-2.6,12.395-3.665c4.22-1.066,8.55-1.753,12.995-2.066c4.441-0.311,9.106,0.246,13.994,1.666
		c0.267,0.89,0.666,1.733,1.199,2.532c0.533,0.8,1.087,1.6,1.666,2.399c0.578,0.8,1.087,1.578,1.533,2.332
		c0.444,0.756,0.71,1.534,0.8,2.333c0.887,0.8,1.6,1.665,2.133,2.6c0.533,0.932,0.62,2.153,0.267,3.664
		c-0.889,0.712-1.756,1.355-2.599,1.933c-0.845,0.579-1.755,1.088-2.732,1.533c-3.288-0.8-6.62-1.066-9.996-0.8
		c-3.378,0.267-6.397,0.489-9.063,0.666c-0.8-0.8-1.756-1.199-2.865-1.199c-1.112,0-2.266,0.179-3.466,0.533
		c-1.199,0.354-2.399,0.711-3.599,1.066c-1.199,0.354-2.332,0.445-3.398,0.267c-0.889,0.712-1.978,1.178-3.265,1.399
		c-1.289,0.223-2.688,0.423-4.198,0.6c-0.09,0.445,0,0.733,0.267,0.865c0.267,0.134,0.31,0.423,0.133,0.867
		c0.533,0.622,1.22,1.066,2.066,1.333c0.843,0.267,1.732,0.533,2.666,0.8s1.753,0.599,2.465,0.999c0.71,0.4,1.2,1.045,1.467,1.933
		c1.333,0,2.485,0.312,3.465,0.932c0.976,0.624,1.775,1.38,2.398,2.268c0.621,0.89,1.087,1.845,1.399,2.865
		c0.311,1.021,0.467,1.932,0.467,2.732c0.267,0.712,0.577,1.022,0.933,0.933c0.354-0.088,0.753,0.09,1.199,0.532
		c0.267,1.156,0.933,2.333,1.999,3.532c1.067,1.2,1.91,2.511,2.533,3.933c0.177,2.222,0.31,4.197,0.4,5.931
		c0.087,1.731-0.224,3.488-0.934,5.265c-1.332,3.288-3.178,6.22-5.531,8.796c-2.355,2.578-5.021,4.864-7.997,6.864
		c-2.978,1.998-6.153,3.711-9.529,5.13c-3.377,1.423-6.664,2.62-9.863,3.6c-0.356-0.09-0.712-0.09-1.066,0
		c-0.356,0.088-0.446-0.134-0.267-0.667c-0.712,0.621-1.489,1.021-2.333,1.2c-0.846,0.177-1.755,0.244-2.732,0.2
		c-0.979-0.046-1.979-0.112-2.999-0.2c-1.022-0.09-1.979-0.047-2.866,0.133c-0.622-0.622-1.178-1.223-1.666-1.799
		c-0.489-0.577-0.866-1.311-1.133-2.2c-0.445,0-0.645-0.22-0.6-0.665c0.044-0.443-0.112-0.667-0.466-0.667
		c0.533-0.887,0.777-1.399,0.733-1.533c-0.045-0.133-0.179-0.243-0.4-0.333c-0.223-0.087-0.423-0.2-0.6-0.333
		c-0.179-0.134-0.223-0.332-0.133-0.599c0.354-0.711,0.488-1.533,0.4-2.467c-0.09-0.933-0.179-1.887-0.267-2.866
		c-0.09-0.977-0.023-1.908,0.2-2.798c0.221-0.887,0.866-1.599,1.933-2.132c3.02,0.356,5.885,0.245,8.597-0.333
		c2.709-0.577,5.265-1.4,7.664-2.467c2.398-1.066,4.686-2.219,6.864-3.465c2.176-1.243,4.332-2.353,6.464-3.332
		c0.267-0.8,0.644-1.466,1.133-1.999c0.487-0.533,1-1.021,1.533-1.466c0.534-0.443,1.021-0.934,1.467-1.466
		c0.443-0.533,0.753-1.2,0.933-2c0.087-0.62-0.067-1-0.467-1.133s-0.599-0.466-0.599-0.999l-1.467-0.399
		c-1.688-0.978-3.599-1.8-5.731-2.467c-2.132-0.666-3.955-1.399-5.464-2.199c-0.979,0.533-1.888,0.666-2.732,0.4
		c-0.846-0.267-1.933-0.533-3.266-0.8c-3.022-0.177-5.931-0.488-8.729-0.934c-2.799-0.442-5.487-1.243-8.063-2.398
		c-0.179-0.444-0.4-0.844-0.667-1.199c-0.267-0.354-0.756-0.443-1.466-0.267c-0.533-0.71-1.066-1.399-1.599-2.066
		c-0.533-0.666-1.023-1.398-1.467-2.198c0.177-1.066,0.311-1.977,0.4-2.733c0.088-0.753-0.179-1.486-0.8-2.199
		c0.354-1.152,0.621-2.086,0.8-2.797C783.153,192.892,783.153,191.96,782.976,190.803z"/>
</g>
<text transform="matrix(1 0 0 1 990.8184 -388.5684)" fill="#1F383D" font-family="'PermanentMarker'" font-size="141.4696">Dads</text>
<text transform="matrix(1 0 0 1 1305.8535 -388.5684)"><tspan x="0" y="0" fill="#45ADA8" font-family="'PermanentMarker'" font-size="141.4696" letter-spacing="-5">‘</tspan><tspan x="23.078" y="0" fill="#45ADA8" font-family="'PermanentMarker'" font-size="141.4696">n’</tspan></text>
<text transform="matrix(1 0 0 1 989.3271 -286.5684)" fill="#1F383D" font-family="'PermanentMarker'" font-size="141.4696">shows</text>
<text transform="matrix(1 0 0 1 1768 -205)" font-family="'Delius-Regular'" font-size="72">‘n’</text>
<text transform="matrix(1 0 0 1 1225 -168)" fill="#1F383D" stroke="#1F383D" stroke-width="2" stroke-miterlimit="10" font-family="'Delius-Regular'" font-size="72">Dads ‘n’ Shows</text>
<g>
	<path fill="#45ADA8" d="M1366.606,785.899c-6.665-3.021-13.782-4.552-21.15-4.552c-7.298,0-13.95,0.76-19.778,2.26
		c-6.326,1.631-9.534,4.27-9.534,7.839c0,2.159,0.852,5.685,6.294,6.13l0.634,36.205l-0.374,35.466
		c-0.734-0.218-1.472-0.327-2.207-0.327c-1.475,0-2.673,0.48-3.562,1.431c-0.867,0.925-1.307,2.083-1.307,3.441
		c0,3.521,3.023,6.347,8.985,8.396c5.547,1.909,12.54,2.877,20.784,2.877c8.277,0,15.744-1.466,22.191-4.354
		c6.455-2.893,11.77-6.808,15.788-11.631c8.255-9.763,12.441-21.46,12.441-34.764c0-13.817-4.315-26.039-12.831-36.331
		C1378.785,792.99,1373.276,788.924,1366.606,785.899z M1335.498,794.125c2.912-0.629,5.818-0.946,8.65-0.946
		c6.332,0,12.102,1.151,17.148,3.423c5.033,2.264,9.15,5.318,12.243,9.078c6.407,7.76,9.656,17.242,9.656,28.181
		c0,10.936-3.332,20.367-9.903,28.033c-6.524,7.611-15.891,11.472-27.837,11.472c-4.423,0-7.718-0.158-9.817-0.469
		c-0.488-10.32-0.736-24.501-0.736-42.174C1334.902,813.273,1335.103,800.971,1335.498,794.125z"/>
	<path fill="#45ADA8" d="M1466.76,873.13c-0.457-0.259-1.1-0.43-2.023-0.54c-0.597-0.071-1.1-0.207-1.587-0.446
		c-0.323-0.129-1.47-0.953-2.669-6.142c-0.93-4.003-1.402-9.267-1.406-15.645c1.734-11.037,2.613-19.752,2.613-25.908
		c0-8.616-3.928-10.426-7.223-10.426c-1.998,0-5.167,0.768-5.981,5.424c-4.61-3.601-9.974-5.424-15.978-5.424
		c-8.979,0-16.425,3.72-22.13,11.057c-5.633,7.242-8.489,15.847-8.489,25.574c0,12.152,3.65,21.646,10.854,28.213
		c4.043,3.68,8.912,5.545,14.473,5.545c5.523,0,10.568-1.757,14.992-5.225c3.16-2.476,5.789-5.406,7.854-8.748
		c0.311,3.251,0.976,6.065,1.988,8.405c1.596,3.694,3.948,5.567,6.993,5.567c2.883,0,5.105-0.891,6.606-2.648
		c1.449-1.699,2.184-3.899,2.184-6.535C1467.83,873.94,1467.165,873.364,1466.76,873.13z M1427.67,873.496
		c-4.453,0-7.807-2.087-10.255-6.383c-2.54-4.45-3.827-10.229-3.827-17.177c0-6.875,1.979-12.843,5.88-17.74
		c3.889-4.884,8.389-7.257,13.757-7.257c5.229,0,10.344,2.324,15.21,6.906l0.631,19.423c-2.111,6.509-5.123,11.919-8.954,16.083
		C1436.308,871.485,1432.238,873.496,1427.67,873.496z"/>
	<path fill="#45ADA8" d="M1529.887,872.319c-0.964-0.253-2.613-1.748-3.51-8.619c-0.773-5.927-1.166-14.273-1.17-24.717
		c0.436-5.761,1.006-12.237,1.695-19.253c0.691-7.025,1.219-12.793,1.572-17.143c0.349-4.35,0.526-8.055,0.526-11.012
		c0-3.221-0.679-5.734-2.017-7.471c-1.413-1.83-3.275-2.758-5.533-2.758c-2.883,0-4.355,1.416-5.084,2.604
		c-0.609,0.994-1.42,3.224-1.42,11.089c0,5.21-0.077,13.384-0.229,24.319c-5.482-3.542-11.319-5.336-17.382-5.336
		c-9.314,0-17.062,3.713-23.027,11.033c-5.905,7.246-8.898,15.859-8.898,25.598c0,4.919,0.904,9.896,2.687,14.793
		c1.804,4.959,4.86,9.391,9.088,13.167c4.305,3.848,9.501,5.798,15.446,5.798c9.266,0,17.127-5.047,23.407-15.013
		c0.639,4.466,1.552,7.812,2.769,10.174c1.655,3.211,4.019,4.839,7.023,4.839c2.941,0,5.148-1.059,6.558-3.147
		c1.308-1.938,1.972-3.882,1.972-5.775C1534.359,874.319,1533.774,872.364,1529.887,872.319z M1493.285,873.496
		c-4.826,0-8.551-2.228-11.39-6.812c-2.915-4.703-4.393-10.471-4.393-17.14c0-6.608,2.04-12.44,6.063-17.334
		c4.021-4.893,8.525-7.271,13.77-7.271c6.617,0,12.453,2.319,17.35,6.891v20.033C1509,866.218,1501.801,873.496,1493.285,873.496z"
		/>
	<path fill="#45ADA8" d="M1576.508,845.432c-3.677-1.619-7.375-3.103-10.989-4.41c-3.521-1.273-6.546-2.686-8.988-4.203
		c-2.166-1.343-3.218-2.868-3.218-4.657c0-1.827,0.99-3.43,3.027-4.901c2.131-1.539,4.971-2.32,8.439-2.32
		c3.476,0,7.199,1.379,11.047,4.08c1.512,1.108,3.072,1.671,4.639,1.671c3.73,0,5.785-1.961,5.785-5.522
		c0-2.797-2.025-5.413-6.02-7.773c-3.791-2.236-8.945-3.371-15.319-3.371c-6.448,0-11.985,1.875-16.455,5.571
		c-4.542,3.752-6.845,8.222-6.845,13.285c0,3.804,1.395,7.127,4.145,9.873c2.629,2.632,5.867,4.723,9.624,6.217
		c3.608,1.438,7.256,2.785,10.829,4.004c8.137,2.852,12.262,6.293,12.262,10.231c0,3.331-1.334,5.798-4.078,7.537
		c-2.883,1.827-6.645,2.754-11.182,2.754c-2.025,0-4.279-0.459-6.7-1.363c-2.994-1.115-4.202-1.897-4.688-2.358
		c-0.802-0.757-1.703-1.68-2.753-2.817c-1.13-1.222-2.018-2.034-2.72-2.485c-0.807-0.517-1.84-0.779-3.07-0.779
		c-1.343,0-2.539,0.545-3.559,1.62c-1,1.057-1.508,2.414-1.508,4.034c0,3.531,2.623,6.882,8.021,10.242
		c5.138,3.201,11.268,4.823,18.22,4.823c7,0,13.098-1.977,18.125-5.874c5.125-3.969,7.723-9.172,7.723-15.465
		c0-4.035-1.378-7.627-4.098-10.675C1583.57,849.45,1580.309,847.105,1576.508,845.432z"/>
	<path fill="#45ADA8" d="M1645.555,785.529c-3.479,0-6.801,3.054-10.153,9.334c-3.172,5.943-4.781,12.094-4.781,18.279
		c0,1.908,0.56,3.661,1.659,5.209c1.193,1.684,3,2.537,5.367,2.537s4.281-1.008,5.69-2.992c1.32-1.854,1.988-3.893,1.985-6.16
		l-0.78-9.441c0-2.469,0.757-4.986,2.248-7.484c2.274-3.812,2.589-4.971,2.589-5.652c0-0.987-0.407-1.883-1.178-2.592
		C1647.45,785.879,1646.559,785.529,1645.555,785.529z"/>
	<path fill="#45ADA8" d="M1717.058,873.13c-0.458-0.259-1.102-0.431-2.024-0.54c-0.623-0.073-1.23-0.24-1.814-0.495
		c-0.132-0.06-0.604-0.358-1.108-1.782c-0.435-1.225-0.676-2.421-0.713-3.558c-0.045-1.215-0.065-3.019-0.066-5.474l0.654-20.559
		c0-7.299-2.02-13.615-6.004-18.777c-4.059-5.256-9.836-7.922-17.166-7.922c-8.639,0-16.116,4.549-22.273,13.534
		c0.007-0.364,0.015-0.739,0.022-1.124c0.043-2.145,0.064-3.959,0.064-5.449c0-1.749-0.547-3.34-1.626-4.729
		c-1.152-1.48-2.728-2.232-4.682-2.232c-1.953,0-3.528,0.752-4.681,2.232c-1.08,1.389-1.627,3.002-1.627,4.795
		c0,1.59,0.367,5.548,1.119,12.097c0.725,6.325,1.096,11.349,1.103,14.931c-1.734,11.024-2.614,19.74-2.614,25.908
		c0,8.617,3.929,10.426,7.224,10.426c2.307,0,6.177-1.023,6.177-7.893l-0.39-28.196c1.607-6.007,4.458-11.467,8.472-16.233
		c3.921-4.656,7.986-7.019,12.079-7.019c4.102,0,7.216,1.625,9.525,4.968c2.373,3.436,3.577,8.044,3.577,13.661l-0.524,24.078
		c0,5.289,0.66,9.224,2.017,12.028c1.477,3.056,4.151,4.605,7.952,4.605c2.253,0,4.243-0.897,5.913-2.668
		c1.648-1.746,2.484-3.939,2.484-6.516C1718.127,873.94,1717.462,873.364,1717.058,873.13z"/>
	<path fill="#45ADA8" d="M1730.576,785.529c-2.365,0-4.28,1.008-5.691,2.994c-1.32,1.855-1.988,3.895-1.984,6.158l0.779,9.443
		c0,2.47-0.757,5.012-2.251,7.556c-2.271,3.864-2.586,4.997-2.586,5.646c0,0.947,0.408,1.82,1.177,2.524
		c0.749,0.688,1.641,1.038,2.648,1.038c3.479,0,6.8-3.053,10.151-9.332c3.175-5.945,4.783-12.096,4.783-18.281
		c0-1.9-0.56-3.652-1.661-5.211C1734.745,786.383,1732.939,785.529,1730.576,785.529z"/>
	<path fill="#45ADA8" d="M1824.28,829.958c-4.631-2.896-9.35-5.72-14.029-8.39c-4.557-2.598-8.484-5.402-11.675-8.336
		c-3.034-2.792-4.51-5.75-4.51-9.043c0-3.238,1.548-5.955,4.735-8.307c3.257-2.401,6.688-3.619,10.196-3.619
		c3.641,0,6.569,0.354,8.708,1.051c2.107,0.691,3.666,1.451,4.63,2.26c1.146,0.963,2.414,1.84,3.775,2.609
		c1.483,0.842,3.005,1.27,4.519,1.27c1.62,0,2.978-0.508,4.034-1.509c1.075-1.02,1.62-2.414,1.62-4.146
		c0-3.539-2.78-6.676-8.266-9.326c-5.199-2.508-11.531-3.779-18.824-3.779c-7.406,0-13.978,2.384-19.537,7.084
		c-5.62,4.751-8.469,10.471-8.469,17c0,4.974,1.743,9.588,5.182,13.715c3.343,4.011,7.448,7.485,12.203,10.329
		c4.619,2.764,9.332,5.517,14.009,8.181c4.543,2.593,8.455,5.558,11.627,8.812c3.023,3.108,4.558,6.451,4.558,9.939
		c0,5.431-1.849,9.639-5.651,12.867c-3.809,3.235-8.667,4.876-14.444,4.876c-3.407,0-6.536-0.544-9.3-1.618
		c-2.761-1.069-4.827-2.239-6.144-3.479c-1.473-1.382-3.057-2.671-4.709-3.833c-1.839-1.291-3.499-1.919-5.074-1.919
		c-1.644,0-3.017,0.566-4.08,1.685c-1.044,1.099-1.573,2.478-1.573,4.101c0,3.913,3.284,7.616,10.037,11.321
		c6.428,3.525,13.44,5.312,20.843,5.312c9.591,0,17.562-2.833,23.689-8.42c6.159-5.614,9.283-12.645,9.283-20.893
		c0-5.302-1.733-10.254-5.151-14.721C1833.154,836.671,1829.045,832.945,1824.28,829.958z"/>
	<path fill="#45ADA8" d="M1911.808,873.13c-0.459-0.259-1.102-0.431-2.024-0.54c-0.621-0.073-1.231-0.24-1.813-0.495
		c-0.133-0.058-0.606-0.358-1.11-1.781c-0.436-1.226-0.675-2.424-0.713-3.559c-0.045-1.238-0.066-3.042-0.066-5.474l0.653-20.559
		c0-7.3-2.02-13.617-6.002-18.777c-4.059-5.256-9.835-7.922-17.166-7.922c-8.658,0-16.152,4.57-22.317,13.597v-38.527
		c0-2.271-0.547-4.125-1.628-5.513c-1.15-1.481-2.726-2.232-4.68-2.232c-1.953,0-3.526,0.75-4.681,2.232
		c-1.08,1.388-1.627,2.892-1.627,4.467c0,1.341,0.385,10.061,1.179,26.657c0.774,16.252,1.169,27.478,1.175,33.374
		c-1.735,11.024-2.615,19.74-2.615,25.908c0,8.617,3.928,10.426,7.223,10.426c2.307,0,6.178-1.023,6.178-7.893l-0.391-28.196
		c1.608-6.007,4.459-11.467,8.472-16.233c3.923-4.656,7.986-7.019,12.079-7.019c4.102,0,7.217,1.625,9.526,4.968
		c2.372,3.436,3.575,8.041,3.575,13.663l-0.522,24.076c0,5.289,0.66,9.224,2.016,12.028c1.477,3.056,4.151,4.605,7.952,4.605
		c2.254,0,4.243-0.897,5.913-2.668c1.649-1.746,2.486-3.939,2.486-6.516C1912.878,873.94,1912.211,873.364,1911.808,873.13z"/>
	<path fill="#45ADA8" d="M1945.324,813.371c-9.259,0-17,3.55-23.008,10.551c-5.961,6.948-8.984,15.501-8.984,25.427
		c0,9.925,3.002,18.437,8.921,25.298c5.964,6.913,13.66,10.419,22.876,10.419c9.212,0,16.951-3.549,23.004-10.549
		c6.006-6.948,9.052-15.503,9.052-25.429s-3.001-18.437-8.921-25.299C1962.3,816.875,1954.582,813.371,1945.324,813.371z
		 M1965.484,849.088c0,6.911-2.041,12.896-6.063,17.792c-4.022,4.891-8.74,7.269-14.424,7.269c-5.679,0-10.309-2.332-14.151-7.128
		c-3.858-4.809-5.812-10.753-5.812-17.672c0-6.911,2.039-12.897,6.063-17.793c4.021-4.891,8.739-7.269,14.425-7.269
		c5.676,0,10.305,2.331,14.151,7.128C1963.529,836.225,1965.484,842.172,1965.484,849.088z"/>
	<path fill="#45ADA8" d="M2068.906,814.023c-2.761,0-4.777,2.004-5.994,5.953c-0.353,1.148-1.411,4.986-3.146,11.41
		c-1.738,6.425-3.187,11.558-4.305,15.262c-4.379,14.621-6.438,20.332-7.396,22.542c-0.947-2.219-2.974-7.959-7.273-22.663
		c-0.79-2.718-2.02-7.194-3.654-13.308c-1.653-6.179-2.979-10.815-3.944-13.804c-1.527-4.457-4.486-5.393-6.7-5.393
		c-2.197,0-5.186,0.951-6.929,5.439c-0.201,0.47-0.814,1.9-8.152,26.799c-4.337,14.71-6.383,20.553-7.341,22.853
		c-0.311-0.771-0.744-1.97-1.335-3.826c-0.695-1.994-1.323-3.858-1.888-5.598c-0.566-1.736-1.283-3.997-2.152-6.783
		c-0.872-2.785-1.721-5.509-2.548-8.168c-0.822-2.632-2.188-7.158-4.179-13.84c-1.915-6.427-3.115-10.394-3.468-11.454
		c-1.411-4.48-4.25-5.422-6.383-5.422c-1.62,0-3.023,0.553-4.169,1.643c-1.159,1.104-1.746,2.543-1.746,4.273
		c0,1.543,0.574,4.02,1.759,7.572c0.616,1.849,1.28,3.751,1.972,5.651c0.696,1.914,1.633,4.527,2.808,7.834
		c1.188,3.346,2.373,6.791,3.522,10.237c1.175,3.526,2.698,8.164,4.571,13.911c1.869,5.739,3.125,9.529,3.732,11.263
		c1.831,5.312,4.724,8.004,8.594,8.004c3.797,0,6.582-1.769,8.26-5.221c1.709-3.24,4.817-12.721,9.516-29.029
		c0.171-0.691,0.541-2.018,1.099-3.941c0.564-1.961,1.351-4.659,2.351-8.102c0.502-1.724,0.893-2.787,1.175-3.439
		c0.661,1.55,1.923,5.128,4.277,13.367c2.871,10.049,5.912,19.722,9.038,28.754c1.748,5.05,4.684,7.611,8.726,7.611
		c3.96,0,6.834-1.982,8.313-5.73c1.666-4.213,3.961-10.923,6.825-19.947c2.859-9.009,4.901-15.312,6.07-18.733
		c1.16-3.392,2.064-6.105,2.688-8.062c0.606-1.91,1.192-3.713,1.76-5.407c0.583-1.754,0.977-3.068,1.205-4.025
		c0.239-1.01,0.359-2.116,0.359-3.285c0-1.453-0.604-2.707-1.796-3.729C2071.891,814.518,2070.504,814.023,2068.906,814.023z"/>
	<path fill="#45ADA8" d="M2123.137,852.398c-2.633-2.948-5.895-5.293-9.696-6.967c-3.677-1.619-7.374-3.103-10.989-4.41
		c-3.522-1.273-6.545-2.686-8.987-4.203c-2.165-1.343-3.219-2.868-3.219-4.657c0-1.827,0.99-3.43,3.028-4.901
		c2.13-1.539,4.97-2.32,8.439-2.32c3.476,0,7.198,1.379,11.047,4.08c1.51,1.108,3.07,1.671,4.638,1.671
		c3.731,0,5.785-1.961,5.785-5.522c0-2.797-2.026-5.413-6.021-7.773c-3.79-2.236-8.943-3.371-15.318-3.371
		c-6.448,0-11.985,1.875-16.455,5.571c-4.541,3.752-6.844,8.222-6.844,13.285c0,3.804,1.394,7.127,4.145,9.873
		c2.629,2.632,5.866,4.723,9.622,6.217c3.61,1.438,7.256,2.785,10.832,4.004c8.136,2.852,12.261,6.293,12.261,10.231
		c0,3.331-1.335,5.798-4.078,7.537c-2.883,1.827-6.646,2.754-11.182,2.754c-2.025,0-4.28-0.459-6.699-1.363
		c-2.996-1.115-4.204-1.897-4.691-2.358c-0.8-0.757-1.701-1.68-2.752-2.817c-1.13-1.222-2.017-2.034-2.719-2.485
		c-0.807-0.517-1.84-0.779-3.071-0.779c-1.342,0-2.54,0.545-3.557,1.62c-1.002,1.057-1.51,2.414-1.51,4.034
		c0,3.531,2.624,6.882,8.021,10.242c5.138,3.201,11.269,4.823,18.22,4.823c6.999,0,13.097-1.977,18.124-5.874
		c5.124-3.969,7.724-9.172,7.724-15.465C2127.234,859.038,2125.856,855.446,2123.137,852.398z"/>
</g>
<text transform="matrix(1 0 0 1 -672.0039 385.9893)"><tspan x="0" y="0" fill="#1F383D" stroke="#1F383D" stroke-width="2" stroke-miterlimit="10" font-family="'Delius-Regular'" font-size="108" letter-spacing="-4">D</tspan><tspan x="72.252" y="0" fill="#1F383D" stroke="#1F383D" stroke-width="2" stroke-miterlimit="10" font-family="'Delius-Regular'" font-size="108" letter-spacing="-9">a</tspan><tspan x="124.848" y="0" fill="#1F383D" stroke="#1F383D" stroke-width="2" stroke-miterlimit="10" font-family="'Delius-Regular'" font-size="108" letter-spacing="-2">d</tspan><tspan x="186.191" y="0" fill="#1F383D" stroke="#1F383D" stroke-width="2" stroke-miterlimit="10" font-family="'Delius-Regular'" font-size="108">s </tspan><tspan x="261.033" y="0" fill="#1F383D" stroke="#1F383D" stroke-width="2" stroke-miterlimit="10" font-family="'Delius-Regular'" font-size="108" letter-spacing="-6">‘n</tspan><tspan x="334.147" y="0" fill="#1F383D" stroke="#1F383D" stroke-width="2" stroke-miterlimit="10" font-family="'Delius-Regular'" font-size="108">’ </tspan><tspan x="383.502" y="0" fill="#1F383D" stroke="#1F383D" stroke-width="2" stroke-miterlimit="10" font-family="'Delius-Regular'" font-size="108" letter-spacing="-4">S</tspan><tspan x="439.229" y="0" fill="#1F383D" stroke="#1F383D" stroke-width="2" stroke-miterlimit="10" font-family="'Delius-Regular'" font-size="108" letter-spacing="-6">ho</tspan><tspan x="549.281" y="0" fill="#1F383D" stroke="#1F383D" stroke-width="2" stroke-miterlimit="10" font-family="'Delius-Regular'" font-size="108" letter-spacing="-4">w</tspan><tspan x="629.849" y="0" fill="#1F383D" stroke="#1F383D" stroke-width="2" stroke-miterlimit="10" font-family="'Delius-Regular'" font-size="108">s</tspan></text>
<text transform="matrix(1 0 0 1 711 -72)" font-family="'DeliusUnicase-Bold'" font-size="72">Dads ‘n’ Shows</text>
<g>
	<path fill="#1F383D" d="M-841.633,506.721l-0.821-37.462c-4.493-1.315-6.737-4.437-6.737-9.366c0-3.285,2.383-6.297,7.148-9.036
		c4.765-2.737,10.212-4.737,16.349-5.997c6.133-1.258,11.937-1.891,17.416-1.891c10.734,0,20.346,1.809,28.836,5.423
		c8.488,3.614,15.306,8.437,20.456,14.459c10.405,12.38,15.609,27.167,15.609,44.362c0,16.543-5.04,31.002-15.116,43.379
		c-4.93,6.134-11.53,11.036-19.799,14.704c-8.272,3.669-18.103,5.505-29.494,5.505c-11.394,0-21.251-1.645-29.576-4.93
		c-8.326-3.285-12.486-7.395-12.486-12.324s2.572-7.993,7.722-9.199L-841.633,506.721z M-766.544,506.556
		c0-11.829-3.589-21.96-10.763-30.396c-7.175-8.433-17.499-12.651-30.972-12.651c-3.725,0-7.229,0.492-10.516,1.479
		c-0.329,6.683-0.494,20.375-0.494,41.077c0,20.703,0.219,34.997,0.658,42.884c3.504,0.767,7.448,1.15,11.83,1.15
		c8.873,0,16.431-2.135,22.675-6.407C-772.405,535.474-766.544,523.096-766.544,506.556z"/>
	<path fill="#1F383D" d="M-636.825,448.145c2.573,3.672,3.862,8.271,3.862,13.803s-1.536,20.949-4.601,46.253
		c0,5.915,0.628,13.72,1.89,23.413c1.258,9.694,2.928,15.255,5.011,16.677c1.971,1.314,3.394,2.138,4.272,2.465
		c0.875,0.327,1.479,0.604,1.807,0.822c0.547,0.548,0.821,1.643,0.821,3.285c0,4.165-1.425,7.833-4.272,11.009
		c-2.85,3.176-6.547,4.765-11.091,4.765c-4.546,0-8.297-1.945-11.255-5.832c-2.957-3.889-4.985-8.845-6.08-14.871
		c-10.187,13.913-22.127,20.868-35.818,20.868c-7.34,0-13.912-1.89-19.717-5.67c-5.806-3.779-10.407-8.733-13.801-14.868
		c-6.901-12.489-10.352-26.344-10.352-41.572c0-17.962,4.819-33.46,14.458-46.497c9.639-13.034,22.125-19.553,37.462-19.553
		c8.981,0,17.524,2.411,25.633,7.229c1.643-4.818,5.365-7.229,11.173-7.229C-642.933,442.641-639.399,444.477-636.825,448.145z
		 M-658.267,509.678l-0.821-36.147c-7.779-6.68-16.158-10.022-25.139-10.022c-7.558,0-14.213,4.3-19.963,12.897
		c-5.75,8.602-8.626,18.979-8.626,31.136c0,12.159,1.89,22.266,5.668,30.317c3.78,8.05,9.037,12.074,15.774,12.074
		s13.581-4.488,20.539-13.472C-663.881,527.479-659.691,518.55-658.267,509.678z"/>
	<path fill="#1F383D" d="M-607.825,506.721l-0.821-37.462c-4.493-1.315-6.737-4.437-6.737-9.366c0-3.285,2.383-6.297,7.148-9.036
		c4.765-2.737,10.212-4.737,16.349-5.997c6.133-1.258,11.938-1.891,17.417-1.891c10.732,0,20.347,1.809,28.837,5.423
		c8.486,3.614,15.306,8.437,20.454,14.459c10.408,12.38,15.609,27.167,15.609,44.362c0,16.543-5.036,31.002-15.114,43.379
		c-4.93,6.134-11.531,11.036-19.799,14.704c-8.272,3.669-18.104,5.505-29.495,5.505c-11.393,0-21.251-1.645-29.575-4.93
		c-8.326-3.285-12.486-7.395-12.486-12.324s2.572-7.993,7.722-9.199L-607.825,506.721z M-532.738,506.556
		c0-11.829-3.588-21.96-10.759-30.396c-7.176-8.433-17.499-12.651-30.973-12.651c-3.725,0-7.229,0.492-10.516,1.479
		c-0.329,6.683-0.494,20.375-0.494,41.077c0,20.703,0.218,34.997,0.658,42.884c3.504,0.767,7.448,1.15,11.83,1.15
		c8.871,0,16.43-2.135,22.675-6.407C-538.599,535.474-532.738,523.096-532.738,506.556z"/>
	<path fill="#1F383D" d="M-427.251,533.339c0,10.626-4,19.526-11.994,26.698c-7.998,7.176-18.35,10.764-31.055,10.764
		c-10.187,0-19.498-2.438-27.933-7.312c-8.435-4.874-12.651-9.995-12.651-15.362c0-2.959,1.012-5.395,3.04-7.313
		c2.026-1.915,4.544-2.875,7.559-2.875c3.011,0,5.968,1.017,8.872,3.04c2.902,2.027,6.08,4.056,9.529,6.079
		c3.452,2.028,7.667,3.04,12.652,3.04c4.983,0,9.366-1.505,13.146-4.52c3.777-3.009,5.667-7.089,5.667-12.239
		c0-5.478-4.711-11.01-14.129-16.594c-1.865-1.097-4.905-2.849-9.119-5.26c-4.219-2.407-7.423-4.272-9.612-5.585
		c-2.193-1.314-5.068-3.312-8.627-5.998c-3.561-2.684-6.271-5.176-8.134-7.477c-4.6-5.694-6.9-11.83-6.9-18.402
		c0-8.543,3.697-15.91,11.092-22.1c7.392-6.187,16.101-9.283,26.123-9.283c10.024,0,18.593,1.918,25.715,5.751
		c7.118,3.835,10.679,8.162,10.679,12.979c0,3.179-0.985,5.644-2.957,7.395c-1.973,1.753-4.438,2.629-7.395,2.629
		c-2.958,0-6.792-1.341-11.501-4.025c-4.711-2.683-9.12-4.025-13.227-4.025c-4.107,0-7.668,1.014-10.679,3.04
		c-3.016,2.028-4.52,4.574-4.52,7.64c0,3.286,2.079,6.465,6.244,9.53c3.285,2.41,7.584,5.15,12.899,8.216
		c5.311,3.067,9.117,5.285,11.419,6.653c2.3,1.371,5.393,3.533,9.282,6.49c3.887,2.958,6.819,5.643,8.792,8.052
		c1.97,2.411,3.751,5.42,5.34,9.035C-428.046,525.614-427.251,529.395-427.251,533.339z"/>
</g>
<g>
	<g>
		<path fill="#1F383D" d="M76.383,533.339c0,10.626-4.001,19.526-11.994,26.698c-7.996,7.176-18.351,10.764-31.056,10.764
			c-10.187,0-19.497-2.438-27.93-7.312c-8.438-4.874-12.654-9.995-12.654-15.362c0-2.959,1.012-5.395,3.04-7.313
			c2.027-1.915,4.546-2.875,7.56-2.875c3.01,0,5.968,1.017,8.871,3.04c2.902,2.027,6.08,4.056,9.532,6.079
			c3.449,2.028,7.666,3.04,12.649,3.04c4.982,0,9.366-1.505,13.144-4.52c3.779-3.009,5.669-7.089,5.669-12.239
			c0-5.478-4.711-11.01-14.129-16.594c-1.862-1.097-4.902-2.849-9.119-5.26c-4.219-2.407-7.421-4.272-9.613-5.585
			c-2.191-1.314-5.068-3.312-8.625-5.998c-3.562-2.684-6.271-5.176-8.135-7.477c-4.6-5.694-6.899-11.83-6.899-18.402
			c0-8.543,3.697-15.91,11.09-22.1c7.394-6.187,16.104-9.283,26.128-9.283c10.02,0,18.59,1.918,25.713,5.751
			c7.118,3.835,10.679,8.162,10.679,12.979c0,3.179-0.984,5.644-2.957,7.395c-1.973,1.753-4.437,2.629-7.395,2.629
			c-2.957,0-6.792-1.341-11.501-4.025c-4.712-2.683-9.12-4.025-13.227-4.025c-4.107,0-7.669,1.014-10.68,3.04
			c-3.016,2.028-4.52,4.574-4.52,7.64c0,3.286,2.079,6.465,6.244,9.53c3.287,2.41,7.584,5.15,12.896,8.216
			c5.313,3.067,9.12,5.285,11.42,6.653c2.302,1.371,5.396,3.533,9.284,6.49c3.887,2.958,6.819,5.643,8.789,8.052
			c1.975,2.411,3.753,5.42,5.342,9.035C75.587,525.614,76.383,529.395,76.383,533.339z"/>
		<path fill="#1F383D" d="M154.262,493.904l-0.985-32.533c0-11.937,4.133-17.909,12.404-17.909c8.271,0,12.407,5.973,12.407,17.909
			c0,6.795-0.386,17.363-1.152,31.712c3.287,0.657,5.888,2.028,7.804,4.108c1.917,2.081,2.878,4.546,2.878,7.395
			c0,2.848-0.932,5.312-2.793,7.395c-1.863,2.081-4.492,3.34-7.889,3.777l1.152,36.475c0,11.831-4.137,17.748-12.407,17.748
			c-8.271,0-12.404-5.917-12.404-17.748l0.985-37.297l-22.838-0.493l-22.184,0.493l1.152,37.297
			c0,11.831-4.165,17.748-12.486,17.748c-8.326,0-12.489-5.917-12.489-17.748l1.15-36.475c-3.396-0.438-5.997-1.726-7.805-3.862
			c-1.808-2.135-2.71-4.6-2.71-7.395c0-2.791,0.958-5.229,2.875-7.31c1.916-2.08,4.462-3.451,7.64-4.108l-0.985-31.546
			c0-11.939,4.163-17.91,12.486-17.91c8.324,0,12.487,5.971,12.487,17.91c0,7.011-0.384,17.801-1.15,32.367l22.019,0.493
			C138.871,494.397,146.484,494.233,154.262,493.904z"/>
		<path fill="#1F383D" d="M250.135,442.641c16.264,0,29.845,6.218,40.747,18.648c10.897,12.435,16.349,27.551,16.349,45.35
			c0,17.802-5.478,32.944-16.434,45.431c-10.951,12.487-24.563,18.731-40.827,18.731c-16.269,0-29.881-6.244-40.832-18.731
			c-10.955-12.486-16.429-27.629-16.429-45.431c0-17.799,5.505-32.915,16.512-45.35
			C220.229,448.858,233.866,442.641,250.135,442.641z M249.97,550.098c9.694,0,17.771-4.379,24.233-13.145
			c6.463-8.763,9.694-18.92,9.694-30.478c0-11.557-3.205-21.634-9.609-30.233c-6.41-8.598-14.518-12.898-24.318-12.898
			c-9.806,0-17.911,4.301-24.318,12.898c-6.409,8.6-9.613,18.677-9.613,30.233c0,11.558,3.23,21.715,9.693,30.478
			C232.194,545.719,240.275,550.098,249.97,550.098z"/>
		<path fill="#1F383D" d="M416.165,560.121c-1.315,3.396-2.986,5.889-5.013,7.475c-2.027,1.587-4.791,2.385-8.297,2.385
			c-6.354,0-10.899-3.998-13.636-11.996c-1.427-4.05-3.069-9.748-4.93-17.087c-4.272-16.651-6.711-24.975-7.312-24.975
			c-0.604,0-1.836,3.313-3.697,9.941c-1.863,6.628-3.066,10.924-3.614,12.896c-1.863,7.12-3.836,14.104-5.915,20.951
			c-2.081,6.846-6.519,10.269-13.309,10.269c-6.793,0-11.229-3.124-13.309-9.366c-1.425-3.064-5.315-14.648-11.667-34.75
			c-6.354-20.102-10.791-33.793-13.31-41.078c-2.52-7.284-4.327-12.46-5.422-15.527c-2.408-6.79-3.614-11.856-3.614-15.199
			c0-3.339,1.041-5.94,3.122-7.804c2.079-1.861,4.709-2.794,7.887-2.794c5.915,0,10.078,3.89,12.486,11.667
			c2.303,7.996,6.189,20.759,11.667,38.283c8.323,26.511,12.705,39.762,13.144,39.762c0.876,0,3.945-10.296,9.202-30.888
			l2.63-10.354c2.519-10.294,6.955-15.444,13.309-15.444c4.052,0,7.172,1.289,9.365,3.86c2.19,2.575,3.944,6.437,5.259,11.584
			c7.558,27.277,11.773,40.913,12.651,40.913c1.092,0,8.542-25.523,22.346-76.567c2.407-8.544,6.08-12.816,11.007-12.816
			c3.725,0,6.572,1.126,8.545,3.368c1.972,2.246,2.957,4.519,2.957,6.82c0,2.299-0.327,4.847-0.985,7.639
			c-0.657,2.793-1.396,5.422-2.217,7.887c-0.822,2.465-2.11,6.301-3.862,11.502c-1.754,5.204-3.479,10.49-5.175,15.856
			c-1.7,5.367-4.083,12.816-7.149,22.346C422.955,539.035,418.574,552.783,416.165,560.121z"/>
		<path fill="#1F383D" d="M529.864,533.339c0,10.626-4.001,19.526-11.994,26.698c-7.999,7.176-18.351,10.764-31.056,10.764
			c-10.187,0-19.497-2.438-27.933-7.312c-8.436-4.874-12.651-9.995-12.651-15.362c0-2.959,1.012-5.395,3.04-7.313
			c2.025-1.915,4.544-2.875,7.559-2.875c3.011,0,5.969,1.017,8.872,3.04c2.901,2.027,6.079,4.056,9.529,6.079
			c3.452,2.028,7.666,3.04,12.651,3.04c4.983,0,9.367-1.505,13.146-4.52c3.777-3.009,5.667-7.089,5.667-12.239
			c0-5.478-4.711-11.01-14.129-16.594c-1.865-1.097-4.905-2.849-9.119-5.26c-4.219-2.407-7.423-4.272-9.612-5.585
			c-2.192-1.314-5.067-3.312-8.626-5.998c-3.562-2.684-6.271-5.176-8.135-7.477c-4.6-5.694-6.899-11.83-6.899-18.402
			c0-8.543,3.697-15.91,11.092-22.1c7.392-6.187,16.102-9.283,26.123-9.283c10.024,0,18.593,1.918,25.715,5.751
			c7.118,3.835,10.68,8.162,10.68,12.979c0,3.179-0.985,5.644-2.957,7.395c-1.973,1.753-4.438,2.629-7.395,2.629
			s-6.793-1.341-11.502-4.025c-4.711-2.683-9.119-4.025-13.227-4.025c-4.106,0-7.668,1.014-10.679,3.04
			c-3.016,2.028-4.52,4.574-4.52,7.64c0,3.286,2.079,6.465,6.244,9.53c3.285,2.41,7.584,5.15,12.899,8.216
			c5.311,3.067,9.117,5.285,11.419,6.653c2.3,1.371,5.393,3.533,9.282,6.49c3.887,2.958,6.819,5.643,8.791,8.052
			c1.971,2.411,3.751,5.42,5.34,9.035C529.068,525.614,529.864,529.395,529.864,533.339z"/>
	</g>
</g>
<text transform="matrix(1 0 0 1 128 628)"><tspan x="0" y="0" fill="#1F383D" font-family="'DeliusUnicase-Bold'" font-size="72" letter-spacing="-5">Da</tspan><tspan x="102.456" y="0" fill="#1F383D" font-family="'DeliusUnicase-Bold'" font-size="72" letter-spacing="-8">d</tspan><tspan x="149.615" y="0" fill="#1F383D" font-family="'DeliusUnicase-Bold'" font-size="72" letter-spacing="-2">s</tspan></text>
<g>
	<text transform="matrix(1 0 0 1 2005 639)"><tspan x="0" y="0" fill="#1F383D" font-family="'DeliusUnicase-Bold'" font-size="72" letter-spacing="-7">S</tspan><tspan x="36.575" y="0" fill="#1F383D" font-family="'DeliusUnicase-Bold'" font-size="72" letter-spacing="-5">h</tspan><tspan x="86.686" y="0" fill="#1F383D" font-family="'DeliusUnicase-Bold'" font-size="72" letter-spacing="-8">o</tspan><tspan x="137.302" y="0" fill="#1F383D" font-family="'DeliusUnicase-Bold'" font-size="72" letter-spacing="-7">w</tspan><tspan x="198.717" y="0" fill="#1F383D" font-family="'DeliusUnicase-Bold'" font-size="72" letter-spacing="-2">s</tspan></text>
</g>
<rect x="1666" y="-167" fill="#1F383D" stroke="#1F383D" stroke-miterlimit="10" width="72" height="69"/>
</svg>
